<svg width="15" height="14" viewBox="0 0 15 14" fill="none" xmlns="http://www.w3.org/2000/svg">
<path d="M0.713867 0.967285H13.4639C13.5524 0.967285 13.641 0.983887 13.7295 1.01709C13.818 1.05029 13.8955 1.1001 13.9619 1.1665C14.0283 1.23291 14.0809 1.31038 14.1196 1.39893C14.1584 1.48747 14.1777 1.58154 14.1777 1.68115V13.0034C14.1777 13.103 14.1584 13.1971 14.1196 13.2856C14.0809 13.3742 14.0283 13.4517 13.9619 13.5181C13.8955 13.5845 13.818 13.6343 13.7295 13.6675C13.641 13.7007 13.5524 13.7173 13.4639 13.7173H0.713867C0.625326 13.7173 0.536784 13.7007 0.448242 13.6675C0.359701 13.6343 0.282227 13.5845 0.21582 13.5181C0.149414 13.4517 0.0968424 13.3742 0.0581055 13.2856C0.0193685 13.1971 0 13.103 0 13.0034V1.68115C0 1.58154 0.0193685 1.48747 0.0581055 1.39893C0.0968424 1.31038 0.149414 1.23291 0.21582 1.1665C0.282227 1.1001 0.359701 1.05029 0.448242 1.01709C0.536784 0.983887 0.625326 0.967285 0.713867 0.967285ZM12.75 3.97217L7.13867 9.00244L1.42773 3.95557V12.3062H12.75V3.97217ZM1.77637 2.37842L7.13867 7.10986L12.4014 2.37842H1.77637Z" fill="white"/>
</svg>
