<svg width="231" height="80" viewBox="0 0 231 80" fill="none" xmlns="http://www.w3.org/2000/svg">
<path d="M228.143 29.1434C228.083 28.7227 228.026 28.3019 227.965 27.8812C227.908 27.5006 227.567 27.206 227.029 26.9496C226.798 26.8394 226.522 26.6351 226.567 26.5028C226.715 26.0501 226.128 25.8657 225.643 25.6133C225.136 25.3488 225.211 25.1285 225.851 24.892C226.643 24.6015 226.628 24.5955 226.056 24.0406L226.079 24.0526C225.677 23.131 224.833 22.3116 223.988 21.4922L224.026 21.5122C224.022 21.0254 224.018 20.5385 224.014 20.0497L223.98 20.0657C225.287 20.7809 225.95 21.6905 226.662 22.582C227.643 23.8082 228.382 25.0844 229.552 26.2704C229.916 26.6391 230.075 27.0718 230.234 27.4845C230.624 28.4943 230.924 29.512 230.927 30.5478C230.931 31.215 230.954 31.8801 230.984 32.5473C231.068 34.1881 230.818 35.8129 230.283 37.4297C228.969 41.4046 226.742 45.2072 222.518 48.605C220.128 50.5263 217.624 52.4116 215.063 54.2708C213.033 55.7454 210.495 56.9835 207.927 58.1916C205.699 59.2374 203.449 60.2672 201.176 61.2829C197.582 62.8897 193.745 64.3162 189.593 65.4982C183.036 67.3654 176.403 69.1545 169.395 70.5109C165.096 71.3423 160.732 72.0796 156.387 72.8429C154.107 73.2456 151.789 73.5902 149.516 74.0069C145.398 74.7622 141.201 75.3913 136.963 75.8862C131.603 76.5133 126.231 77.1323 120.784 77.533C116.705 77.8315 112.644 78.2182 108.553 78.4726C104.466 78.7271 100.39 79.0536 96.2532 79.0837C93.3933 79.1037 90.5409 79.256 87.681 79.3041C85.0483 79.3482 82.4119 79.3542 79.7982 79.1238C79.2376 79.0737 78.6581 79.0657 78.0861 79.0637C74.2981 79.0537 70.5517 78.7732 66.7903 78.5929C65.313 78.5227 63.8433 78.3785 62.3811 78.2322C60.9189 78.086 59.4946 77.8856 58.2521 77.3928C57.3279 77.0261 56.2029 76.8719 55.0665 76.7517C52.9338 76.5273 50.8125 76.2648 48.6799 76.0385C44.7328 75.6177 40.9751 74.8824 37.2137 74.1472C36.2477 73.9588 35.3084 73.7304 34.3387 73.5441C31.9598 73.0913 29.6907 72.5344 27.5467 71.8151C26.2967 71.3944 24.9596 71.0258 23.5845 70.7333C21.1867 70.2224 19.2397 69.3869 17.4594 68.4433C15.3608 67.3274 13.3683 66.1554 11.5766 64.8952C10.6865 64.2681 9.87206 63.6029 9.13719 62.9218C8.75082 62.5631 8.44778 62.1384 8.38338 61.7317C8.30005 61.2008 8.194 60.7861 6.98185 60.6999C6.83033 60.6899 6.60302 60.3774 6.66363 60.2371C6.84924 59.8284 6.72044 59.5359 5.99315 59.3215C5.70526 59.2374 5.42118 59.1052 5.2583 58.9569C5.0992 58.8127 4.93251 58.5743 5.04994 58.4561C5.80375 57.7028 5.21665 57.0496 4.61436 56.3905C4.50072 56.2663 4.27722 56.2482 4.03858 56.3103C3.67872 56.4025 3.38321 56.3444 3.13699 56.1961C2.23924 55.6552 2.2317 55.3727 3.084 54.7737C3.22037 54.6775 3.35667 54.5834 3.49304 54.4872C2.95893 50.7427 2.9855 46.9902 3.25823 43.2418C3.33778 42.1619 3.7393 41.076 4.19765 40.0162C5.2204 37.6541 6.52728 35.3421 8.20536 33.0742C9.67889 31.0847 11.6183 29.2476 13.6828 27.4324C14.5085 26.7072 15.4062 26.002 16.2737 25.2887C16.4593 25.1365 16.6108 24.9642 16.8457 24.8379C19.0844 23.6239 20.8458 22.1874 23.2057 21.0274C24.2095 20.5325 25.1451 19.9976 26.1224 19.4867C26.9558 19.054 27.6529 18.5972 27.6983 17.93C27.7248 17.5574 28.115 17.2408 28.6377 16.9864C30.1529 16.2491 31.6492 15.4998 33.2023 14.7866C34.672 14.1134 36.2023 13.4783 37.7099 12.8272C37.9751 12.713 38.2402 12.5948 38.5205 12.4906C39.2705 12.2121 39.9713 11.8756 40.7933 11.6772C43.6153 10.998 45.8958 9.83202 48.8163 9.241C50.1989 8.96052 51.483 8.54779 52.8201 8.2052C53.9528 7.9167 55.0702 7.59614 56.2521 7.37576C57.7786 7.08927 59.2067 6.72264 60.5439 6.24982C61.6992 5.84111 62.9152 5.52457 64.3205 5.4284C64.7675 5.39835 65.2069 5.31019 65.6273 5.21803C67.6388 4.78328 69.6578 4.36456 71.7526 4.04601C73.1844 3.82763 74.4875 3.44497 75.7186 2.99018C76.264 2.78783 76.783 2.86397 77.4724 3.22058C77.7678 3.37285 78.0747 3.42095 78.3436 3.28872C78.9232 3.00222 79.4459 2.68165 80.0103 2.3651C80.5633 2.29698 81.1278 2.2429 81.6695 2.15275C82.9044 1.9504 84.1128 1.91633 85.3855 2.09665C86.431 2.2449 86.4537 2.20083 87.7681 1.65188C91.5599 1.99447 95.2646 1.74804 98.9124 1.13898L98.8707 1.16302C99.1889 1.13898 99.5184 1.13097 99.8253 1.08689C100.151 1.03881 100.617 1.16304 100.833 0.832473C100.14 0.812438 99.5071 0.794401 98.8707 0.77637L98.9124 0.7964C101.34 0.203375 103.829 0.303557 106.291 0.680208C107.307 0.836478 108.261 0.950671 109.314 0.826457C109.867 0.760342 110.454 0.754318 111.023 0.762332C112.068 0.77836 113.083 0.746305 114.034 0.487859C114.466 0.369655 114.928 0.379688 115.36 0.479862C116.03 0.634128 116.686 0.654163 117.348 0.479862C117.89 0.337616 118.466 0.28352 119 0.42777C120.303 0.778376 121.659 0.796402 123.015 0.598059C124.262 0.415744 125.481 0.385688 126.75 0.493875C127.303 0.541958 127.887 0.481869 128.459 0.483872C128.913 0.485876 129.432 0.433782 129.811 0.529948C131.216 0.892575 132.697 0.842485 134.182 0.852503C136.004 0.864523 137.815 1.09091 139.66 0.918608C140.186 0.870525 140.773 1.02079 141.334 1.07087C142.804 1.19909 144.27 1.32931 145.77 1.18707C146.217 1.14499 146.69 1.12698 147.137 1.15703C152.024 1.47759 156.918 1.76808 161.653 2.5294C162.308 2.63558 162.979 2.74577 163.566 2.92608C165.971 3.65735 168.581 4.10212 171.217 4.51283C174.407 5.00969 177.547 5.57865 180.604 6.26985C181.759 6.5303 182.949 6.76873 183.809 7.28963C183.873 7.3297 183.922 7.42986 183.881 7.45791C183.752 7.54206 183.574 7.66628 183.415 7.66628C182.968 7.66628 182.521 7.61618 182.074 7.58012C181.627 7.54406 181.184 7.49398 180.733 7.46593C180.653 7.45992 180.509 7.52404 180.479 7.57012C180.449 7.6182 180.483 7.71035 180.551 7.7384C182.081 8.36949 183.638 8.98255 185.028 9.7098C186.036 10.2367 187.29 10.5332 188.737 10.5372C190.718 10.5432 192.555 10.8518 194.396 11.2104C197.305 11.7794 200.15 12.4125 202.771 13.296C204.896 14.0112 207.006 14.7405 209.101 15.4818C211.014 16.161 212.616 17.0325 214.234 17.8919C214.881 18.2345 215.416 18.6733 216.177 18.9137C218.866 19.7612 220.056 21.2718 221.976 22.4558C222.12 22.546 222.242 22.6622 222.291 22.7764C223.026 24.4913 225.056 25.9639 225.552 27.7329C225.753 28.4502 226.056 29.1574 226.143 29.8847C226.215 30.4877 226.245 31.1008 226.723 31.6657C226.802 31.7579 227.075 31.8901 227.192 31.8741C228.041 31.7479 228.094 32.1065 228.314 32.361C228.408 32.357 228.567 32.3549 228.567 32.3469C228.673 31.3833 228.798 30.4176 228.386 29.4639C228.336 29.3477 228.208 29.2416 228.117 29.1314L228.143 29.1434ZM215.749 51.3117C215.98 51.1895 216.207 51.0673 216.438 50.9451C216.472 50.897 216.51 50.8489 216.544 50.8008C216.514 50.8529 216.488 50.905 216.457 50.9551C216.226 51.0773 215.995 51.1975 215.764 51.3197L215.749 51.3117ZM213.684 52.7662C213.722 52.7161 213.764 52.6681 213.802 52.618C213.768 52.6701 213.734 52.7222 213.7 52.7742L213.684 52.7662ZM224.666 43.3019C224.73 43.2718 224.81 43.2458 224.855 43.2077C224.889 43.1817 224.882 43.1396 224.893 43.1055C224.829 43.1757 224.764 43.2478 224.7 43.3199C224.666 43.372 224.628 43.4221 224.594 43.4742C224.62 43.4161 224.643 43.36 224.666 43.3019ZM226.745 40.0402C226.851 39.9461 226.973 39.8539 227.064 39.7557C227.2 39.6095 227.128 39.5334 226.901 39.5714C226.848 39.5794 226.821 39.6676 226.81 39.7217C226.787 39.8319 226.779 39.9421 226.768 40.0503L226.745 40.0402ZM83.0786 2.60152C82.124 2.63157 81.1657 2.64959 80.3513 2.96614L80.3209 2.95012C81.2679 2.90204 82.2111 2.84996 83.0521 2.5855C83.1392 2.55545 83.2263 2.52538 83.3134 2.49533C83.2376 2.53139 83.1581 2.56746 83.0786 2.60152ZM19.861 45.5157L19.8231 45.4977C19.7852 45.9865 19.6109 46.4553 19.2245 46.9061C18.8003 47.403 18.4405 47.9138 18.0124 48.4107C17.4291 49.0899 17.2131 49.7991 17.3116 50.5364C17.3911 51.1394 17.4669 51.7445 17.6336 52.3415C18.2435 54.5193 19.5617 56.5728 21.4935 58.5222C24.1186 61.1727 27.8498 63.2423 32.9068 64.6167C35.1455 65.2258 37.3728 65.8448 39.6418 66.4198C42.2252 67.077 44.8919 67.6159 47.7253 67.9064C49.9716 68.1368 52.2027 68.4133 54.43 68.6897C55.8808 68.87 57.3317 69.0063 58.8241 69.0764C60.7598 69.1686 62.6841 69.3409 64.6008 69.5232C66.0743 69.6634 67.5403 69.7616 69.0365 69.7476C71.5631 69.7255 74.0708 69.8337 76.5633 70.0441C77.4648 70.1202 78.3853 70.1723 79.2944 70.1803C82.1468 70.2023 84.9802 70.557 87.8515 70.3266C88.2909 70.2905 88.7606 70.3686 89.2189 70.3827C90.2455 70.4147 91.2758 70.4428 92.3024 70.4688C97.5828 70.597 102.825 70.3045 108.068 70.0481C111.826 69.8638 115.576 69.6193 119.288 69.2126C123.436 68.7579 127.603 68.3391 131.796 68.0266C135.216 67.7721 138.474 67.2052 141.819 66.8105C143.489 66.6142 145.107 66.2816 146.777 66.0832C151.698 65.5002 156.452 64.6107 161.281 63.8634C166.558 63.046 171.645 61.93 176.581 60.6438C180.691 59.574 184.775 58.4721 188.566 57.1037C192.926 55.531 197.017 53.774 200.775 51.8146C202.73 50.7948 204.646 49.745 206.366 48.6151C209.609 46.4854 212.253 44.1453 214.514 41.6891C214.965 41.2002 215.325 40.6853 215.635 40.1684C217.139 37.6701 218.01 35.1217 217.844 32.4852C217.772 31.3292 217.431 30.1992 217.063 29.0632C216.257 26.581 214.578 24.285 211.938 22.1874C211.302 21.6825 210.722 21.1576 210.033 20.6768C208.995 19.9555 208.116 19.1661 206.828 18.5511C205.73 18.0262 204.442 17.6094 203.643 16.9142C203.476 16.77 203.15 16.6458 202.847 16.5797C201.552 16.2952 200.502 15.8484 199.525 15.3255C199.139 15.1172 198.586 14.9649 198.059 14.8687C196.62 14.6023 195.389 14.2056 194.362 13.5985C194.002 13.3842 193.411 13.276 192.919 13.1257C192.029 12.8532 191.021 12.6509 190.256 12.3023C187.759 11.1603 184.767 10.8878 181.638 10.7917C181.524 10.7877 181.407 10.8057 181.293 10.7977C180.619 10.7456 179.93 10.7156 179.274 10.6234C178.615 10.5292 177.983 10.413 177.278 10.393C176.608 10.375 175.93 10.2728 175.293 10.1526C174.217 9.94821 173.18 9.68577 172.108 9.47341C170.286 9.11479 168.482 8.71209 166.615 8.44363C163.524 7.99886 160.403 7.61218 157.221 7.37978C154.842 7.20547 152.482 6.95906 150.107 6.76272C145.016 6.33999 139.932 5.90122 134.762 5.85715C133.849 5.84913 132.932 5.80906 132.023 5.75497C127.337 5.47248 122.633 5.50453 117.955 5.67483C113.739 5.82909 109.5 5.9453 105.31 6.30592C100.905 6.68658 96.4919 7.02516 92.1963 7.70433C86.7113 8.57384 81.2945 9.54753 75.9231 10.5953C71.0745 11.541 66.3773 12.6429 61.8242 13.9271C57.4756 15.1552 53.2899 16.5256 49.3731 18.1163C43.4639 20.5185 37.816 23.0729 32.8802 26.044C32.5772 26.2264 32.2666 26.4047 31.937 26.573C30.6908 27.206 29.6491 27.9253 28.6983 28.6846C28.0051 29.2395 27.3271 29.8025 26.5771 30.3374C23.5505 32.4932 21.4178 34.9033 19.4367 37.3556C18.9443 37.9686 18.6526 38.6158 18.4935 39.2849C18.2927 40.1244 18.0806 40.9698 17.7018 41.7912C16.929 43.4621 17.0011 45.1531 17.1071 46.846C17.1109 46.9201 17.3912 47.0003 17.5692 47.0564C17.6223 47.0724 17.8003 47.0303 17.8533 46.9882C18.5352 46.4954 19.1981 46.0045 19.861 45.5157ZM228.465 35.7989C228.412 35.7488 228.378 35.6727 228.302 35.6566C228.003 35.5945 227.696 35.5284 227.382 35.5124C227.215 35.5044 226.931 35.5825 226.886 35.6526C226.836 35.7328 226.942 35.8891 227.079 35.9411C227.329 36.0373 227.639 36.1014 227.942 36.1415C228.238 36.1836 228.579 35.9411 228.465 35.7989ZM228.014 37.5419C227.92 37.5519 227.738 37.564 227.738 37.572C227.742 37.6681 227.776 37.7623 227.799 37.8584C227.897 37.8444 228.022 37.8484 228.083 37.8164C228.257 37.7222 228.223 37.6241 228.014 37.5419ZM226.34 37.7423L226.567 37.7162L226.431 37.606L226.34 37.7423Z" fill="#EAE5FC"/>
<path d="M12.8683 26.8875C12.8001 27.0257 12.7964 27.2281 12.6146 27.3583C11.8077 27.9333 10.9592 28.4923 10.0918 29.0412C9.98951 29.1053 9.6334 29.1274 9.48188 29.0833C9.34173 29.0412 9.20912 28.8669 9.26215 28.7868C9.7205 28.1056 10.3417 27.4665 11.2508 26.9195C11.4668 26.7893 11.7661 26.6811 12.0691 26.617C12.2244 26.583 12.4819 26.6571 12.6713 26.7052C12.7509 26.7232 12.7774 26.7993 12.8683 26.8875Z" fill="#EAE5FC"/>
<path d="M2.46649 52.1852C2.60286 52.7001 2.35669 52.9645 2.14077 52.9064C2.04229 52.8784 1.88697 52.8704 1.8453 52.8283C1.48544 52.4637 1.1256 52.0991 0.814981 51.7224C0.739221 51.6303 0.788439 51.478 0.883138 51.3838C0.977838 51.2897 1.18999 51.1915 1.37939 51.1734C1.55363 51.1574 1.89076 51.2175 1.94 51.2856C2.20137 51.6723 2.39831 52.069 2.46649 52.1852Z" fill="#EAE5FC"/>
<path d="M0.735383 49.6528C0.849022 49.5226 1.06119 49.4705 1.25059 49.5667C1.37938 49.6308 1.46271 49.769 1.4324 49.8592C1.38316 49.9954 1.11797 50.0435 0.928573 49.9493C0.799782 49.8852 0.79599 49.753 0.735383 49.6528Z" fill="#EAE5FC"/>
<path d="M98.9124 1.13298C98.2306 1.12096 97.5487 1.11494 96.8668 1.0929C96.7873 1.09089 96.6548 1.00875 96.6548 0.962668C96.6548 0.918592 96.7835 0.834466 96.8668 0.832463C97.5487 0.810424 98.2306 0.800389 98.9162 0.788368L98.8745 0.768338C98.8745 0.89656 98.8745 1.0268 98.8707 1.15502L98.9124 1.13298Z" fill="#EAE5FC"/>
<path d="M223.988 21.4922C223.893 21.5984 223.817 21.7105 223.7 21.8087C223.651 21.8508 223.495 21.8969 223.427 21.8848C223.166 21.8368 223.151 21.7326 223.408 21.6444C223.59 21.5823 223.817 21.5563 224.026 21.5122L223.988 21.4922Z" fill="#EAE5FC"/>
<path d="M3.33397 38.9563C3.26199 39.1767 3.20135 39.3991 3.11044 39.6195C3.09908 39.6495 2.87181 39.6916 2.83393 39.6736C2.68998 39.6055 2.45894 39.5073 2.47788 39.4372C2.55364 39.1847 2.97414 39.0786 3.3643 38.9704L3.33397 38.9563Z" fill="#EAE5FC"/>
<path d="M0.432393 47.0043C0.432393 47.0604 0.477841 47.1385 0.42481 47.1685C0.235411 47.2787 0.064918 47.2447 0.0118863 47.0864C0.000522328 47.0463 0.0989914 46.9762 0.182327 46.9562C0.235359 46.9401 0.349057 46.9862 0.432393 47.0043Z" fill="#EAE5FC"/>
<path d="M221.719 20.3281C221.624 20.3241 221.476 20.3342 221.45 20.3101C221.408 20.2721 221.423 20.1679 221.461 20.1619C221.742 20.1118 221.832 20.1739 221.719 20.3281Z" fill="#EAE5FC"/>
<path d="M91.7948 1.34734L91.5864 1.3794L91.6167 1.28923L91.7948 1.34734Z" fill="#EAE5FC"/>
<path d="M221.927 18.2425C222.34 18.4329 222.507 18.6893 222.609 18.9618L222.636 18.9478C222.412 18.7053 222.189 18.4649 221.965 18.2225L221.927 18.2425Z" fill="#EAE5FC"/>
<path d="M223.31 19.3344C223.533 19.5789 223.757 19.8213 223.984 20.0657L224.018 20.0497C223.791 19.8052 223.567 19.5628 223.34 19.3184C223.336 19.3184 223.31 19.3344 223.31 19.3344Z" fill="#EAE5FC"/>
<path d="M3.3643 38.9704C3.39081 38.9203 3.41733 38.8702 3.44385 38.8181C3.40597 38.8642 3.37185 38.9103 3.33397 38.9563L3.3643 38.9704Z" fill="#EAE5FC"/>
<path d="M217.109 17.5093L217.135 17.4952C217.139 17.4952 217.109 17.5093 217.109 17.5093Z" fill="#EAE5FC"/>
<path d="M221.965 18.2245L221.927 18.2445C221.927 18.2425 221.965 18.2245 221.965 18.2245Z" fill="#EAE5FC"/>
<path d="M222.609 18.9618C222.844 19.086 223.075 19.2102 223.31 19.3324L223.34 19.3164C223.105 19.1922 222.87 19.07 222.636 18.9457C222.636 18.9478 222.609 18.9618 222.609 18.9618Z" fill="#EAE5FC"/>
<path d="M56.4075 24.3471C56.184 24.277 56.0627 24.2569 56.0135 24.2149C55.968 24.1768 55.9491 24.0846 55.9983 24.0626C56.5097 23.8282 56.9832 23.5597 57.5627 23.3834C60.0363 22.6321 62.4833 21.8447 65.0516 21.1956C68.1388 20.4143 71.3397 19.7571 74.4951 19.0519C75.5443 18.8175 76.6087 18.5951 77.6694 18.3748C78.5179 18.1985 79.3626 18.0061 80.2338 17.8679C84.5029 17.1967 88.7151 16.4374 92.8895 15.614C94.0637 15.3836 95.2759 15.2053 96.4918 15.045C96.9085 14.9909 97.3934 15.043 97.8252 15.0951C97.9729 15.1131 98.0791 15.2714 98.1662 15.3756C98.2003 15.4177 98.1661 15.5058 98.1017 15.5358C97.8517 15.652 97.6056 15.7983 97.3063 15.8524C96.0108 16.0828 94.6926 16.2811 93.3857 16.4995C89.7909 17.1006 86.2113 17.7236 82.6089 18.3006C78.3399 18.9838 74.1579 19.7892 70.0669 20.7268C68.6009 21.0634 67.1729 21.4421 65.7334 21.8067C65.116 21.963 64.5251 22.1533 63.8963 22.2915C61.7788 22.7563 59.756 23.3073 57.8468 23.9784C57.3809 24.1427 56.8393 24.2389 56.4075 24.3471Z" fill="#EAE5FC"/>
<path d="M31.5431 36.4119C31.7666 36.1435 31.884 35.8269 32.2325 35.6126C33.6909 34.715 35.153 33.8154 37.0357 33.1463L37.0016 33.1283C36.8425 33.3486 36.7705 33.6051 36.5054 33.7814C35.0318 34.7531 33.4939 35.6947 31.5165 36.3999L31.5431 36.4119Z" fill="#EAE5FC"/>
<path d="M19.861 45.5157C20.0731 44.8646 20.6489 44.2916 21.2474 43.7246C21.5769 43.412 21.9936 43.1376 22.5997 42.9592L22.5807 42.9512C22.1679 43.953 21.4746 44.8706 19.8231 45.4956C19.8231 45.4976 19.861 45.5157 19.861 45.5157Z" fill="#EAE5FC"/>
<path d="M30.134 37.1352C29.9332 37.586 29.4407 37.9326 28.774 38.2191L28.7968 38.2311C29.0241 37.7903 29.4484 37.4177 30.1605 37.1472C30.1567 37.1472 30.134 37.1352 30.134 37.1352Z" fill="#EAE5FC"/>
<path d="M23.9482 41.8573C23.8459 42.3462 23.3838 42.7088 22.5807 42.9512L22.5997 42.9592C22.7209 42.4764 23.0504 42.0677 23.9785 41.8734L23.9482 41.8573Z" fill="#EAE5FC"/>
<path d="M52.1724 25.5091C52.252 25.473 52.3278 25.437 52.4073 25.4009C52.3164 25.431 52.2293 25.461 52.1384 25.4911L52.1724 25.5091Z" fill="#EAE5FC"/>
<path d="M27.3801 38.9503C27.1566 39.1908 26.9293 39.4312 26.7058 39.6716L26.7399 39.6876C26.9634 39.4472 27.1907 39.2068 27.4142 38.9664L27.3801 38.9503Z" fill="#EAE5FC"/>
<path d="M25.3536 40.7775C25.5809 40.5371 25.8081 40.2966 26.0353 40.0582L26.0051 40.0422C25.7816 40.2846 25.5581 40.5251 25.3346 40.7675L25.3536 40.7775Z" fill="#EAE5FC"/>
<path d="M52.1384 25.4911C51.9187 25.6193 51.699 25.7475 51.4755 25.8777L51.4414 25.8597C51.6838 25.7435 51.9262 25.6253 52.1686 25.5091C52.1724 25.5091 52.1384 25.4911 52.1384 25.4911Z" fill="#EAE5FC"/>
<path d="M51.4755 25.8757L51.3277 25.9378L51.4414 25.8597L51.4755 25.8757Z" fill="#EAE5FC"/>
<path d="M31.5203 36.3999C31.293 36.5221 31.0621 36.6423 30.8348 36.7646L30.8574 36.7766C31.0885 36.6564 31.3158 36.5342 31.5469 36.414C31.5431 36.4119 31.5203 36.3999 31.5203 36.3999Z" fill="#EAE5FC"/>
<path d="M30.831 36.7646C30.5961 36.8888 30.365 37.011 30.1302 37.1352L30.1529 37.1472C30.3878 37.023 30.6188 36.9008 30.8536 36.7766L30.831 36.7646Z" fill="#EAE5FC"/>
<path d="M28.7702 38.2191C28.5392 38.3393 28.312 38.4615 28.0809 38.5817L28.1036 38.5937C28.3308 38.4715 28.5619 38.3513 28.7892 38.2291C28.793 38.2311 28.7702 38.2191 28.7702 38.2191Z" fill="#EAE5FC"/>
<path d="M27.4104 38.9664C27.6415 38.8421 27.8763 38.7179 28.1074 38.5937L28.0847 38.5817C27.8498 38.7039 27.6149 38.8281 27.3801 38.9503L27.4104 38.9664Z" fill="#EAE5FC"/>
<path d="M26.0353 40.0582C26.2702 39.936 26.5013 39.8118 26.7362 39.6896L26.702 39.6736C26.471 39.7958 26.2362 39.92 26.0051 40.0422L26.0353 40.0582Z" fill="#EAE5FC"/>
</svg>
