<svg width="19" height="19" viewBox="0 0 19 19" fill="none" xmlns="http://www.w3.org/2000/svg">
<path d="M18.3535 18.6909V12.0991C18.3535 11.2905 18.2949 10.5347 18.1777 9.83154C18.0723 9.14014 17.8584 8.53662 17.5361 8.021C17.2139 7.50537 16.7598 7.10107 16.1738 6.80811C15.5879 6.51514 14.8262 6.36865 13.8887 6.36865C12.9746 6.36865 12.2188 6.57373 11.6211 6.98389C11.0234 7.39404 10.6016 7.83936 10.3555 8.31982H10.3027V6.66748H6.7168V18.6909H10.4609V12.7495C10.4609 11.9644 10.5898 11.2524 10.8477 10.6138C11.1055 9.9751 11.7207 9.65576 12.6934 9.65576C13.6426 9.65576 14.2021 10.0132 14.3721 10.728C14.542 11.4429 14.627 12.146 14.627 12.8374V18.6909H18.3535ZM0.652344 6.66748H4.37891V18.6909H0.652344V6.66748ZM2.51562 0.690918C1.91797 0.690918 1.4082 0.901855 0.986328 1.32373C0.564453 1.74561 0.353516 2.25537 0.353516 2.85303C0.353516 3.45068 0.564453 3.96338 0.986328 4.39111C1.4082 4.81885 1.91797 5.03271 2.51562 5.03271C3.11328 5.03271 3.62305 4.81885 4.04492 4.39111C4.4668 3.96338 4.67773 3.45068 4.67773 2.85303C4.67773 2.25537 4.4668 1.74561 4.04492 1.32373C3.62305 0.901855 3.11328 0.690918 2.51562 0.690918Z" fill="white"/>
</svg>
