<svg width="16" height="19" viewBox="0 0 16 19" fill="none" xmlns="http://www.w3.org/2000/svg">
<path d="M8.10547 0.690821C6.83984 0.690821 5.72656 0.872461 4.76562 1.23574C3.79297 1.59902 2.98145 2.08828 2.33105 2.70352C1.68066 3.31875 1.18555 4.0248 0.845703 4.82168C0.517578 5.60684 0.353516 6.43301 0.353516 7.30019C0.353516 7.69863 0.40625 8.11465 0.511719 8.54824C0.628906 8.98184 0.790039 9.39199 0.995117 9.77871C1.2002 10.1654 1.44922 10.5111 1.74219 10.8158C2.03516 11.1322 2.36328 11.3666 2.72656 11.5189C2.9375 11.6127 3.06641 11.5746 3.11328 11.4047C3.16016 11.2348 3.27734 10.8158 3.46484 10.1479C3.47656 10.0893 3.47656 10.0336 3.46484 9.98086C3.45312 9.92812 3.42383 9.87832 3.37695 9.83144C2.86133 9.24551 2.57422 8.53652 2.51562 7.70449C2.45703 6.88418 2.61816 6.09316 2.99902 5.33144C3.37988 4.56973 3.97461 3.92519 4.7832 3.39785C5.5918 2.87051 6.59961 2.60684 7.80664 2.60684C9.55273 2.60684 10.8066 3.09902 11.5684 4.0834C12.3418 5.06777 12.7256 6.14883 12.7197 7.32656C12.7139 8.5043 12.377 9.58535 11.709 10.5697C11.041 11.5541 10.1445 12.0463 9.01953 12.0463C8.44531 12.0463 7.97949 11.8529 7.62207 11.4662C7.26465 11.0795 7.15039 10.6166 7.2793 10.0775C7.44336 9.42129 7.64551 8.76797 7.88574 8.11758C8.12598 7.46719 8.24609 6.90762 8.24609 6.43887C8.24609 5.85293 8.05859 5.43105 7.68359 5.17324C7.30859 4.92715 6.89551 4.85098 6.44434 4.94473C5.99316 5.03848 5.58008 5.30215 5.20508 5.73574C4.83008 6.16934 4.64258 6.77871 4.64258 7.56387C4.64258 8.04434 4.70117 8.43398 4.81836 8.73281C4.93555 9.03164 4.99414 9.18105 4.99414 9.18105C4.99414 9.18105 4.92969 9.42129 4.80078 9.90176C4.68359 10.3939 4.5459 10.9506 4.3877 11.5717C4.22949 12.1928 4.08008 12.7963 3.93945 13.3822C3.78711 13.9799 3.68164 14.3842 3.62305 14.5951C3.43555 15.3217 3.40039 16.142 3.51758 17.0561C3.63477 17.9701 3.69922 18.4799 3.71094 18.5854C3.72266 18.6439 3.75488 18.6791 3.80762 18.6908C3.86035 18.7025 3.9043 18.685 3.93945 18.6381C3.99805 18.5561 4.28223 18.1254 4.79199 17.3461C5.30176 16.5668 5.65039 15.8256 5.83789 15.1225C5.9082 14.8646 6.04883 14.3666 6.25977 13.6283C6.4707 12.89 6.57617 12.5209 6.57617 12.5209C6.76367 12.8607 7.10938 13.1537 7.61328 13.3998C8.11719 13.6459 8.66797 13.7689 9.26562 13.7689C10.1445 13.7689 10.959 13.5932 11.709 13.2416C12.4473 12.89 13.0889 12.4066 13.6338 11.7914C14.1787 11.1762 14.6035 10.4584 14.9082 9.63809C15.2012 8.80605 15.3477 7.92129 15.3477 6.98379C15.3477 6.08144 15.1602 5.24941 14.7852 4.48769C14.4219 3.71426 13.915 3.04629 13.2646 2.48379C12.6143 1.92129 11.8438 1.48184 10.9531 1.16543C10.0742 0.849024 9.125 0.690821 8.10547 0.690821Z" fill="white"/>
</svg>
