<svg width="283" height="27" viewBox="0 0 283 27" fill="none" xmlns="http://www.w3.org/2000/svg">
<path fill-rule="evenodd" clip-rule="evenodd" d="M154.896 12.1971C122.223 12.8873 89.5494 14.5942 57.0133 17.3736C39.2424 18.8913 18.6031 18.7095 1.36285 23.8823C0.00470611 24.2905 0.275602 25.5336 0.305288 25.656C0.36466 25.9121 0.613286 26.7618 1.70054 26.8026C1.78589 26.8063 2.36849 26.7322 2.59485 26.7025C7.67119 26.0346 12.7327 25.2553 17.8127 24.6244C35.361 22.4388 52.9537 20.7912 70.5762 19.344C93.9689 17.4218 117.558 16.3939 141.014 15.5961C153.857 15.1545 167.004 15.7371 179.892 14.8354C184.612 14.8094 189.339 14.8058 194.067 14.8206C213.834 14.8911 233.579 15.6407 253.321 16.6686C259.666 16.9988 264.512 17.355 270.732 17.5962C273.095 17.689 276.847 17.7521 279.452 17.7929C279.83 17.8004 280.78 17.8077 281.192 17.8114C281.248 17.8188 281.304 17.8188 281.359 17.8188C281.56 17.8151 281.66 17.804 281.678 17.8003C283.092 17.5925 282.962 16.264 282.921 16.0562C282.914 16.0117 282.706 14.8873 281.496 14.8465C281.315 14.8391 280.005 14.8317 279.5 14.8243C276.914 14.7835 273.192 14.7204 270.847 14.6313C264.642 14.3901 259.807 14.0339 253.473 13.7037C233.687 12.6758 213.894 11.9225 194.078 11.852C191.763 11.8446 189.451 11.8408 187.143 11.8446C186.972 11.6219 186.709 11.4177 186.289 11.3101C185.907 11.2099 183.161 11.1135 182.1 11.0245C174.433 10.3974 174.66 10.4233 166.221 9.90754C153.441 9.12457 151.497 8.94637 138.209 8.61611C121.944 8.21163 105.676 8.10034 89.4084 8.08921C112.771 6.96113 136.29 7.11325 159.62 6.77186C170.17 6.61972 180.716 6.34515 191.265 6.42679C194.887 6.45647 198.505 6.59008 202.127 6.63461C202.876 6.64574 204.802 6.77561 205.081 6.71252C206.001 6.50843 206.198 5.82192 206.253 5.48795C206.283 5.29499 206.416 4.1521 205.047 3.75133C198.936 1.97016 187.658 2.04065 181.721 1.68812C148.473 -0.278586 115.157 0.270597 81.894 1.67698C68.1605 2.25586 54.4714 3.08341 40.7935 4.41929C36.0103 4.88314 31.216 5.28019 26.4514 5.9036C25.6795 6.00379 23.9392 6.14845 23.0969 6.30059C22.6627 6.38223 22.3547 6.50097 22.21 6.5789C21.5346 6.96111 21.4196 7.52517 21.4159 7.90367C21.4122 8.17826 21.4827 9.20614 22.8482 9.4696C36.7377 12.1896 51.8479 11.1284 65.8116 11.0913C89.9205 11.0319 114.033 10.9836 138.135 11.5847C146.287 11.7888 150.154 11.9336 154.896 12.1971ZM161.839 3.76991C135.24 2.9424 108.612 3.51752 82.0165 4.64188C68.3386 5.22076 54.7052 6.0446 41.083 7.37305C38.9122 7.58457 36.7451 7.78121 34.578 7.99272C44.9793 8.73859 55.6997 8.15232 65.8041 8.12263L72.7396 8.10778C72.6839 7.96677 72.6468 7.81464 72.6357 7.65879C72.5726 6.84242 73.1849 6.12622 74.0012 6.06314C102.396 3.90718 131.125 4.21885 159.579 3.80325C160.332 3.79211 161.086 3.78104 161.839 3.76991Z" fill="#35312B"/>
</svg>
