<svg width="80" height="81" viewBox="0 0 80 81" fill="none" xmlns="http://www.w3.org/2000/svg">
<path fill-rule="evenodd" clip-rule="evenodd" d="M35.6074 30.7764C28.1813 24.672 22.164 17.4024 17.6423 8.93288C16.7379 7.24592 14.6336 6.60243 12.9293 7.50678C11.2423 8.41112 10.5987 10.5155 11.5031 12.2199C16.477 21.4894 23.051 29.4547 31.1902 36.1503C32.6684 37.3677 34.877 37.159 36.0944 35.6807C37.3118 34.1851 37.0857 31.9937 35.6074 30.7764Z" fill="#F3F3F3"/>
<path fill-rule="evenodd" clip-rule="evenodd" d="M31.6474 7.00251C32.03 14.0286 32.3779 21.0547 32.8127 28.0808C32.9344 29.9938 34.5866 31.4547 36.4996 31.3329C38.4127 31.2112 39.8735 29.559 39.7518 27.646C39.317 20.6373 38.9691 13.6286 38.5865 6.60254C38.4822 4.69471 36.83 3.22514 34.917 3.33297C33.0039 3.44079 31.5257 5.08425 31.6474 7.00251Z" fill="#F3F3F3"/>
<path fill-rule="evenodd" clip-rule="evenodd" d="M57.4665 8.4287C53.0143 15.1417 47.971 21.333 42.8928 27.5938C41.6754 29.0895 41.9013 31.2809 43.397 32.4809C44.8926 33.6983 47.0841 33.4721 48.2841 31.9765C53.5014 25.5591 58.684 19.1765 63.2753 12.2721C64.3362 10.6721 63.8839 8.51567 62.2839 7.4548C60.7013 6.39393 58.5274 6.8287 57.4665 8.4287Z" fill="#F3F3F3"/>
<path fill-rule="evenodd" clip-rule="evenodd" d="M74.7128 33.3851C62.6433 33.9243 49.8259 33.9417 37.7563 33.1765C35.8432 33.0721 34.1911 34.5156 34.0693 36.446C33.9476 38.3591 35.4085 40.0112 37.3215 40.133C49.6346 40.8982 62.7129 40.8808 75.026 40.3417C76.939 40.2547 78.4345 38.62 78.3475 36.7069C78.2606 34.7939 76.6259 33.2982 74.7128 33.3851Z" fill="#F3F3F3"/>
<path fill-rule="evenodd" clip-rule="evenodd" d="M31.181 35.5936C38.6244 44.7067 46.3289 53.6459 53.2332 63.1763C54.3637 64.7241 56.5377 65.0719 58.1029 63.9414C59.6507 62.811 59.9984 60.637 58.868 59.0892C51.8767 49.4544 44.0855 40.411 36.555 31.1936C35.3376 29.7153 33.1462 29.4893 31.668 30.7067C30.1723 31.9241 29.9636 34.1154 31.181 35.5936Z" fill="#F3F3F3"/>
<path fill-rule="evenodd" clip-rule="evenodd" d="M33.435 38.2379C35.3828 47.7336 35.922 56.8119 36.0611 66.4292C36.0785 68.3423 37.6611 69.8727 39.5742 69.8553C41.5046 69.8205 43.035 68.2552 43.0002 66.3248C42.8611 56.2552 42.2872 46.777 40.2525 36.8292C39.8525 34.951 38.0264 33.7335 36.1307 34.1335C34.2525 34.5161 33.035 36.3596 33.435 38.2379Z" fill="#F3F3F3"/>
<path fill-rule="evenodd" clip-rule="evenodd" d="M33.749 37.473C28.1142 48.7426 25.2099 61.2644 19.1751 72.2905C18.2533 73.96 18.8793 76.0817 20.5662 77.0034C22.2532 77.9252 24.3577 77.299 25.2794 75.6295C31.349 64.5338 34.288 51.9426 39.975 40.586C40.8272 38.8643 40.1315 36.7773 38.4271 35.9078C36.7054 35.0556 34.6186 35.7513 33.749 37.473Z" fill="#F3F3F3"/>
<path fill-rule="evenodd" clip-rule="evenodd" d="M36.8501 34.9156C25.6327 36.8982 14.4327 37.8025 3.14573 39.1416C1.23268 39.3677 -0.123839 41.0895 0.102248 43.0026C0.328335 44.9156 2.05024 46.2721 3.96328 46.046C15.372 44.7069 26.7111 43.7677 38.0676 41.7677C39.9459 41.4199 41.2154 39.6112 40.885 37.7329C40.5372 35.8373 38.7457 34.5677 36.8501 34.9156Z" fill="#F3F3F3"/>
<path fill-rule="evenodd" clip-rule="evenodd" d="M44.6554 29.6296C42.3423 29.5252 40.151 29.3687 37.8901 29.0382C35.9771 28.76 34.2205 30.0817 33.9423 31.9774C33.664 33.873 34.9857 35.647 36.8813 35.9252C39.3857 36.2904 41.8031 36.4643 44.3422 36.5687C46.2553 36.6556 47.89 35.1773 47.9596 33.2469C48.0465 31.3338 46.5684 29.7165 44.6554 29.6296Z" fill="#F3F3F3"/>
</svg>
