<svg width="18" height="18" viewBox="0 0 18 18" fill="none" xmlns="http://www.w3.org/2000/svg">
<g clip-path="url(#clip0_65_162)">
<path d="M6.36808 15.5708L9.87101 12.0679C10.2252 11.7137 10.5185 11.3208 10.7509 10.8892C10.9833 10.4575 11.1438 10.0037 11.2323 9.52783C11.3319 9.04085 11.3569 8.55387 11.307 8.06689C11.2572 7.57992 11.1383 7.10954 10.9501 6.65576C10.762 6.20199 10.5129 5.78695 10.203 5.41064C9.89315 5.03434 9.53345 4.70784 9.12394 4.43115C8.71444 4.15446 8.27726 3.94694 7.81242 3.80859C7.34758 3.67025 6.86613 3.60107 6.36808 3.60107C5.8811 3.60107 5.40243 3.67025 4.93205 3.80859C4.46167 3.94694 4.02173 4.15446 3.61222 4.43115C3.20272 4.70784 2.84302 5.03434 2.53312 5.41064C2.22323 5.78695 1.9742 6.20199 1.78605 6.65576C1.5979 7.10954 1.48169 7.57992 1.43742 8.06689C1.39315 8.55387 1.41528 9.04085 1.50382 9.52783C1.60343 10.0037 1.76945 10.4575 2.00187 10.8892C2.23429 11.3208 2.52205 11.7137 2.86515 12.0679L6.36808 15.5708ZM6.36808 17.563L1.86906 13.064C1.41528 12.6213 1.04175 12.1204 0.748454 11.5615C0.455159 11.0026 0.24764 10.4132 0.125895 9.79346C0.00415039 9.17367 -0.0262858 8.55111 0.0345866 7.92578C0.095459 7.30046 0.242106 6.6945 0.474528 6.10791C0.718018 5.53239 1.04175 5.00114 1.44572 4.51416C1.84969 4.02718 2.31177 3.60661 2.83195 3.25244C3.35213 2.89827 3.91382 2.62988 4.51701 2.44727C5.1202 2.26465 5.73722 2.17334 6.36808 2.17334C6.99894 2.17334 7.61597 2.26465 8.21916 2.44727C8.82235 2.62988 9.38957 2.89827 9.92082 3.25244C10.441 3.60661 10.9003 4.02718 11.2987 4.51416C11.6972 5.00114 12.0181 5.53239 12.2616 6.10791C12.5051 6.6945 12.6573 7.30046 12.7182 7.92578C12.7791 8.55111 12.7486 9.17367 12.6269 9.79346C12.5051 10.4132 12.2948 11.0026 11.996 11.5615C11.6972 12.1204 11.3264 12.6213 10.8837 13.064L6.36808 17.563ZM6.36808 9.97607C6.55623 9.97607 6.73885 9.9401 6.91593 9.86816C7.09302 9.79622 7.24797 9.69385 7.38078 9.56104C7.51359 9.42822 7.61597 9.27327 7.68791 9.09619C7.75985 8.91911 7.79582 8.73649 7.79582 8.54834C7.79582 8.36019 7.75985 8.18034 7.68791 8.00879C7.61597 7.83724 7.51359 7.68506 7.38078 7.55225C7.24797 7.41943 7.09302 7.31706 6.91593 7.24512C6.73885 7.17318 6.55623 7.13721 6.36808 7.13721C6.17993 7.13721 6.00008 7.17318 5.82853 7.24512C5.65698 7.31706 5.5048 7.41943 5.37199 7.55225C5.23918 7.68506 5.1368 7.83724 5.06486 8.00879C4.99292 8.18034 4.95695 8.36019 4.95695 8.54834C4.95695 8.73649 4.99292 8.91911 5.06486 9.09619C5.1368 9.27327 5.23918 9.42822 5.37199 9.56104C5.5048 9.69385 5.65698 9.79622 5.82853 9.86816C6.00008 9.9401 6.17993 9.97607 6.36808 9.97607ZM6.36808 11.3872C5.99178 11.3872 5.63208 11.3153 5.28898 11.1714C4.94588 11.0275 4.64152 10.8228 4.3759 10.5571C4.11027 10.2915 3.90552 9.98438 3.76164 9.63574C3.61776 9.28711 3.54582 8.92464 3.54582 8.54834C3.54582 8.17204 3.61776 7.81234 3.76164 7.46924C3.90552 7.12614 4.11027 6.82178 4.3759 6.55615C4.64152 6.29053 4.94588 6.08577 5.28898 5.94189C5.63208 5.79801 5.99178 5.72607 6.36808 5.72607C6.74438 5.72607 7.10685 5.79801 7.45549 5.94189C7.80412 6.08577 8.11125 6.29053 8.37687 6.55615C8.6425 6.82178 8.84725 7.12614 8.99113 7.46924C9.13501 7.81234 9.20695 8.17204 9.20695 8.54834C9.20695 8.92464 9.13501 9.28711 8.99113 9.63574C8.84725 9.98438 8.6425 10.2915 8.37687 10.5571C8.11125 10.8228 7.80412 11.0275 7.45549 11.1714C7.10685 11.3153 6.74438 11.3872 6.36808 11.3872Z" fill="white"/>
</g>
<defs>
<clipPath id="clip0_65_162">
<rect width="17.44" height="17" fill="white" transform="matrix(1 0 0 -1 0 17.7622)"/>
</clipPath>
</defs>
</svg>
