<svg width="17" height="20" viewBox="0 0 17 20" fill="none" xmlns="http://www.w3.org/2000/svg">
<path d="M12.75 12.3999V14.8901C12.75 14.9897 12.7334 15.0811 12.7002 15.1641C12.667 15.2471 12.6227 15.3218 12.5674 15.3882C12.501 15.4435 12.4263 15.4906 12.3433 15.5293C12.2603 15.568 12.1745 15.5929 12.0859 15.604C11.931 15.6151 11.7926 15.6234 11.6709 15.6289C11.5492 15.6344 11.4385 15.6372 11.3389 15.6372C9.76725 15.6372 8.29525 15.3384 6.92285 14.7407C5.55046 14.1541 4.34961 13.3462 3.32031 12.3169C2.29102 11.2876 1.48307 10.0868 0.896484 8.71436C0.298828 7.34196 0 5.86995 0 4.29834C0 4.2098 0.00276693 4.10189 0.00830078 3.97461C0.0138346 3.84733 0.0221354 3.70622 0.0332031 3.55127C0.0442708 3.46273 0.0691732 3.37695 0.10791 3.29395C0.146647 3.21094 0.193685 3.13623 0.249023 3.06982C0.31543 3.01449 0.390137 2.97021 0.473145 2.93701C0.556152 2.90381 0.647461 2.88721 0.74707 2.88721H3.2373C3.28158 2.88721 3.32585 2.89551 3.37012 2.91211C3.41439 2.92871 3.45312 2.95361 3.48633 2.98682C3.51953 3.00895 3.54443 3.03939 3.56104 3.07812C3.57764 3.11686 3.59147 3.15837 3.60254 3.20264C3.60254 3.29118 3.60807 3.36589 3.61914 3.42676C3.63021 3.48763 3.63574 3.54574 3.63574 3.60107C3.71322 4.08805 3.82389 4.5695 3.96777 5.04541C4.11165 5.52132 4.28874 5.98063 4.49902 6.42334C4.53223 6.50081 4.53776 6.57829 4.51562 6.65576C4.49349 6.73324 4.45475 6.79411 4.39941 6.83838L2.87207 7.91748C3.10449 8.47087 3.38672 8.98551 3.71875 9.46143C4.03971 9.9484 4.40771 10.3994 4.82275 10.8145C5.23779 11.2295 5.6888 11.603 6.17578 11.9351C6.65169 12.256 7.16634 12.5327 7.71973 12.7651L8.79883 11.2544C8.82096 11.2212 8.84863 11.1935 8.88184 11.1714C8.91504 11.1493 8.94824 11.1326 8.98145 11.1216C9.02572 11.1105 9.06722 11.1077 9.10596 11.1133C9.14469 11.1188 9.18066 11.1271 9.21387 11.1382C9.65658 11.3485 10.1159 11.5256 10.5918 11.6694C11.0677 11.8133 11.5492 11.924 12.0361 12.0015C12.0915 12.0015 12.1523 12.007 12.2188 12.0181C12.2852 12.0291 12.3571 12.0347 12.4346 12.0347C12.4788 12.0457 12.5203 12.0596 12.5591 12.0762C12.5978 12.0928 12.6338 12.1177 12.667 12.1509C12.6891 12.1841 12.7085 12.2228 12.7251 12.2671C12.7417 12.3114 12.75 12.3556 12.75 12.3999Z" fill="white"/>
</svg>
