<svg width="198" height="179" viewBox="0 0 198 179" fill="none" xmlns="http://www.w3.org/2000/svg">
<path fill-rule="evenodd" clip-rule="evenodd" d="M129.091 45.5937C137.688 46.034 144.522 50.3793 151.356 55.2585C173.768 71.2814 181.263 96.1419 165.906 120.572C142.024 158.456 86.3983 183.251 43.2646 171.808C33.712 169.286 20.7793 167.063 11.3002 154.748C2.48237 143.297 2.84978 129.684 6.89127 117.081C11.0062 104.16 18.9422 92.2669 25.2617 84.6223C52.8907 51.2687 108.222 20.9549 158.263 36.9361C159.292 37.244 160.321 36.7145 160.615 35.7534C160.909 34.7923 160.394 33.7618 159.439 33.4539C107.928 17.0067 50.8329 47.9715 22.3956 82.2971C14.5331 91.8296 4.24622 107.742 1.30696 124.206C-0.677045 135.459 0.718817 146.961 8.3609 156.968C18.4279 170.086 32.1691 172.656 42.3095 175.341C86.8393 187.16 144.375 161.641 168.991 122.514C185.525 96.256 177.589 69.51 153.487 52.2876C146.139 46.9937 138.643 42.4187 129.311 41.9418C128.282 41.8899 127.401 42.6659 127.401 43.6738C127.328 44.6817 128.136 45.5418 129.091 45.5937Z" fill="black"/>
</svg>
