<svg width="70" height="71" viewBox="0 0 70 71" fill="none" xmlns="http://www.w3.org/2000/svg">
<path d="M0 35.408C0 16.078 15.67 0.407959 35 0.407959C54.33 0.407959 70 16.078 70 35.408V67.408C70 69.0648 68.6569 70.408 67 70.408H3C1.34315 70.408 0 69.0648 0 67.408V35.408Z" fill="#7152E9" fill-opacity="0.15"/>
<path d="M44.81 33.2654L41.5625 30.1454C41.3528 29.9354 41.102 29.771 40.8258 29.6626C40.5496 29.5542 40.254 29.5041 39.9575 29.5154C39.3619 29.5278 38.7954 29.7759 38.3825 30.2054L25.9175 43.1803C25.8611 43.2423 25.8155 43.3133 25.7825 43.3904V43.5028L23.75 50.9804C23.7208 51.0932 23.7183 51.2112 23.7427 51.3251C23.7671 51.4391 23.8177 51.5458 23.8904 51.6368C23.9632 51.7277 24.0562 51.8005 24.162 51.8493C24.2678 51.8981 24.3835 51.9216 24.5 51.9179C24.5721 51.9284 24.6454 51.9284 24.7175 51.9179L32.0975 49.6679H32.2025C32.2774 49.6319 32.3459 49.5837 32.405 49.5254L36.5525 45.2054C36.673 45.0594 36.7338 44.8732 36.7227 44.6842C36.7117 44.4953 36.6296 44.3175 36.4929 44.1865C36.3563 44.0556 36.1752 43.9811 35.9859 43.9781C35.7966 43.9751 35.6132 44.0438 35.4725 44.1704L31.835 47.9204L27.5 43.6828L39.5 31.2479C39.568 31.1765 39.6493 31.1193 39.7394 31.0794C39.8295 31.0395 39.9265 31.0177 40.025 31.0154C40.2224 31.0168 40.4122 31.0917 40.5575 31.2254L43.805 34.3454C43.9447 34.4859 44.0231 34.676 44.0231 34.8741C44.0231 35.0722 43.9447 35.2623 43.805 35.4029L43.25 35.9429C43.1078 36.0891 43.0295 36.2858 43.0323 36.4897C43.0351 36.6937 43.1188 36.8881 43.265 37.0304C43.4112 37.1726 43.6079 37.2509 43.8119 37.2481C44.0158 37.2453 44.2103 37.1616 44.3525 37.0154L44.87 36.4754C45.0793 36.262 45.244 36.009 45.3544 35.7313C45.4649 35.4536 45.5189 35.1566 45.5133 34.8578C45.5077 34.5589 45.4427 34.2642 45.3219 33.9908C45.2011 33.7174 45.0271 33.4708 44.81 33.2654ZM25.55 50.0578L26.855 45.1304L30.425 48.5578L25.55 50.0578Z" fill="#7152E9"/>
<path d="M39.1325 39.6104L37.5725 41.2304C37.5045 41.3018 37.4513 41.3859 37.4158 41.4779C37.3804 41.5698 37.3634 41.6679 37.3658 41.7664C37.3683 41.865 37.3901 41.9621 37.4301 42.0522C37.47 42.1423 37.5273 42.2237 37.5987 42.2916C37.6702 42.3596 37.7542 42.4128 37.8462 42.4483C37.9382 42.4837 38.0363 42.5007 38.1348 42.4983C38.2334 42.4959 38.3305 42.474 38.4206 42.4341C38.5107 42.3941 38.592 42.3368 38.66 42.2654L40.25 40.6529C40.3705 40.5069 40.4313 40.3207 40.4202 40.1318C40.4092 39.9428 40.3271 39.765 40.1904 39.634C40.0538 39.5031 39.8727 39.4286 39.6834 39.4256C39.4941 39.4226 39.3107 39.4913 39.17 39.6179L39.1325 39.6104ZM42.2825 37.4354C42.142 37.2957 41.9519 37.2173 41.7537 37.2173C41.5556 37.2173 41.3655 37.2957 41.225 37.4354C41.154 37.506 41.0979 37.5902 41.06 37.6829C41.0002 37.8221 40.984 37.9761 41.0134 38.1247C41.0429 38.2733 41.1166 38.4095 41.225 38.5154C41.3647 38.6539 41.5532 38.7321 41.75 38.7329C41.85 38.7351 41.9495 38.7172 42.0425 38.6804C42.1325 38.6416 42.214 38.5855 42.2825 38.5154C42.3878 38.4107 42.4597 38.2772 42.4891 38.1317C42.5185 37.9861 42.504 37.8352 42.4475 37.6979C42.4081 37.6015 42.3523 37.5127 42.2825 37.4354Z" fill="#7152E9"/>
</svg>
