<svg width="70" height="71" viewBox="0 0 70 71" fill="none" xmlns="http://www.w3.org/2000/svg">
<path d="M0 35.908C0 16.578 15.67 0.907959 35 0.907959C54.33 0.907959 70 16.578 70 35.908V67.908C70 69.5648 68.6569 70.908 67 70.908H3C1.34315 70.908 0 69.5648 0 67.908V35.908Z" fill="#F86F03" fill-opacity="0.15"/>
<path fill-rule="evenodd" clip-rule="evenodd" d="M41.0513 28.908C40.4943 28.908 40.0427 29.3557 40.0427 29.908C40.0427 30.4602 40.4943 30.908 41.0513 30.908C41.6083 30.908 42.0598 30.4602 42.0598 29.908C42.0598 29.3557 41.6083 28.908 41.0513 28.908ZM38.1735 28.9791C38.5678 27.7769 39.7072 26.908 41.0513 26.908C42.7223 26.908 44.0769 28.2511 44.0769 29.908C44.0769 31.5648 42.7223 32.908 41.0513 32.908C39.7648 32.908 38.6658 32.1118 38.2281 30.9893C33.9875 31.5869 30.642 34.9041 30.0393 39.1088C31.1714 39.5427 31.9743 40.6324 31.9743 41.908C31.9743 43.5649 30.6197 44.908 28.9487 44.908C27.2777 44.908 25.9231 43.5649 25.9231 41.908C25.9231 40.5753 26.7994 39.4456 28.0119 39.0546C28.6597 33.7865 32.8604 29.6214 38.1735 28.9791ZM28.9487 40.908C28.3917 40.908 27.9402 41.3557 27.9402 41.908C27.9402 42.4603 28.3917 42.908 28.9487 42.908C29.5057 42.908 29.9573 42.4603 29.9573 41.908C29.9573 41.3557 29.5057 40.908 28.9487 40.908Z" fill="#F86F03"/>
</svg>
