<svg width="124" height="80" viewBox="0 0 124 80" fill="none" xmlns="http://www.w3.org/2000/svg">
<path d="M121.574 29.4608C121.542 29.04 121.512 28.6193 121.48 28.1986C121.45 27.8179 121.27 27.5234 120.985 27.267C120.863 27.1568 120.717 26.9524 120.741 26.8202C120.819 26.3674 120.508 26.1831 120.252 25.9307C119.983 25.6662 120.023 25.4458 120.362 25.2094C120.781 24.9189 120.773 24.9129 120.47 24.358L120.482 24.37C120.27 23.4484 119.823 22.629 119.376 21.8096L119.396 21.8296C119.394 21.3427 119.392 20.8559 119.39 20.3671L119.372 20.3831C120.063 21.0983 120.414 22.0079 120.791 22.8994C121.31 24.1256 121.7 25.4018 122.319 26.5878C122.512 26.9564 122.596 27.3892 122.68 27.8019C122.886 28.8116 123.045 29.8294 123.047 30.8652C123.049 31.5324 123.061 32.1975 123.077 32.8647C123.121 34.5055 122.989 36.1303 122.706 37.7471C122.011 41.722 120.833 45.5245 118.599 48.9224C117.335 50.8437 116.01 52.729 114.656 54.5882C113.582 56.0628 112.24 57.3009 110.882 58.509C109.704 59.5548 108.513 60.5846 107.311 61.6003C105.41 63.2071 103.381 64.6336 101.185 65.8156C97.7168 67.6828 94.2087 69.4719 90.5023 70.8283C88.2284 71.6597 85.9205 72.397 83.6225 73.1603C82.4164 73.563 81.1903 73.9076 79.9882 74.3243C77.8104 75.0796 75.5906 75.7087 73.3487 76.2036C70.5138 76.8307 67.6729 77.4497 64.7919 77.8504C62.6342 78.1489 60.4865 78.5356 58.3228 78.79C56.161 79.0445 54.0053 79.371 51.8175 79.4011C50.3049 79.4211 48.7963 79.5734 47.2837 79.6215C45.8912 79.6655 44.4969 79.6715 43.1145 79.4411C42.818 79.3911 42.5114 79.3831 42.2089 79.3811C40.2055 79.371 38.224 79.0906 36.2346 78.9102C35.4532 78.8401 34.6759 78.6959 33.9026 78.5496C33.1292 78.4034 32.3759 78.203 31.7188 77.7102C31.2299 77.3435 30.6349 77.1893 30.0339 77.0691C28.9059 76.8447 27.784 76.5822 26.656 76.3558C24.5684 75.9351 22.581 75.1998 20.5915 74.4646C20.0806 74.2762 19.5838 74.0478 19.0709 73.8615C17.8128 73.4087 16.6126 72.8518 15.4787 72.1325C14.8175 71.7118 14.1103 71.3431 13.3831 71.0506C12.1149 70.5398 11.0851 69.7043 10.1435 68.7607C9.03357 67.6448 7.97974 66.4728 7.0321 65.2126C6.56129 64.5855 6.13056 63.9203 5.74188 63.2391C5.53753 62.8805 5.37726 62.4558 5.3432 62.0491C5.29912 61.5182 5.24303 61.1035 4.60193 61.0173C4.52179 61.0073 4.40156 60.6948 4.43362 60.5545C4.53179 60.1458 4.46367 59.8533 4.079 59.6389C3.92674 59.5548 3.77649 59.4226 3.69034 59.2743C3.6062 59.1301 3.51803 58.8916 3.58014 58.7734C3.97883 58.0201 3.66831 57.367 3.34976 56.7079C3.28966 56.5836 3.17145 56.5656 3.04523 56.6277C2.8549 56.7199 2.69861 56.6618 2.56838 56.5135C2.09356 55.9726 2.08958 55.6901 2.54035 55.0911C2.61248 54.9949 2.68457 54.9007 2.7567 54.8046C2.47421 51.0601 2.48826 47.3076 2.63251 43.5591C2.67458 42.4793 2.88694 41.3934 3.12936 40.3336C3.6703 37.9715 4.36151 35.6595 5.24904 33.3916C6.02839 31.4021 7.05415 29.5649 8.14604 27.7498C8.58279 27.0246 9.05758 26.3193 9.51638 25.6061C9.61455 25.4538 9.69469 25.2816 9.8189 25.1553C11.0029 23.9412 11.9346 22.5047 13.1827 21.3447C13.7136 20.8499 14.2085 20.315 14.7254 19.8041C15.1661 19.3713 15.5348 18.9146 15.5589 18.2474C15.5729 17.8748 15.7792 17.5582 16.0557 17.3038C16.8571 16.5665 17.6485 15.8172 18.4699 15.104C19.2472 14.4308 20.0566 13.7957 20.854 13.1446C20.9942 13.0304 21.1345 12.9122 21.2827 12.808C21.6794 12.5295 22.05 12.1929 22.4848 11.9946C23.9774 11.3154 25.1835 10.1494 26.7282 9.55838C27.4594 9.2779 28.1386 8.86518 28.8458 8.52258C29.4448 8.23408 30.0358 7.91353 30.6609 7.69315C31.4683 7.40665 32.2236 7.04002 32.9309 6.5672C33.5419 6.15849 34.185 5.84195 34.9283 5.74579C35.1647 5.71573 35.3971 5.62757 35.6195 5.53541C36.6833 5.10066 37.7512 4.68194 38.8591 4.36339C39.6164 4.14502 40.3056 3.76235 40.9567 3.30756C41.2453 3.10521 41.5197 3.18135 41.8843 3.53797C42.0406 3.69023 42.2029 3.73833 42.3451 3.6061C42.6517 3.31961 42.9281 2.99903 43.2266 2.68249C43.5191 2.61437 43.8177 2.56029 44.1042 2.47013C44.7573 2.26778 45.3964 2.23372 46.0696 2.41403C46.6225 2.56228 46.6345 2.51821 47.3297 1.96926C49.3352 2.31186 51.2946 2.06542 53.2239 1.45637L53.2019 1.48041C53.3702 1.45637 53.5445 1.44835 53.7068 1.40427C53.8791 1.35619 54.1255 1.48043 54.2397 1.14986C53.873 1.12982 53.5385 1.11178 53.2019 1.09375L53.2239 1.11378C54.5082 0.520758 55.8244 0.62094 57.1267 0.997591C57.6636 1.15386 58.1685 1.26805 58.7255 1.14384C59.018 1.07773 59.3285 1.0717 59.629 1.07971C60.182 1.09574 60.7189 1.06369 61.2218 0.805242C61.4502 0.687037 61.6946 0.697071 61.923 0.797244C62.2776 0.951511 62.6242 0.971546 62.9748 0.797244C63.2613 0.654999 63.5658 0.600903 63.8483 0.745152C64.5375 1.09576 65.2547 1.11378 65.972 0.915442C66.6311 0.733127 67.2762 0.703071 67.9474 0.811258C68.2399 0.859341 68.5484 0.799252 68.851 0.801255C69.0914 0.803259 69.3658 0.751165 69.5662 0.847331C70.3094 1.20996 71.0928 1.15987 71.8782 1.16989C72.8418 1.18191 73.7995 1.40829 74.7752 1.23599C75.0536 1.18791 75.3642 1.33817 75.6607 1.38826C76.4381 1.51648 77.2134 1.64669 78.0068 1.50445C78.2432 1.46238 78.4936 1.44436 78.73 1.47442C81.3145 1.79497 83.903 2.08547 86.4073 2.84678C86.7539 2.95297 87.1085 3.06315 87.419 3.24346C88.6912 3.97473 90.0716 4.41951 91.466 4.83021C93.1529 5.32707 94.8138 5.89604 96.4306 6.58723C97.0417 6.84768 97.6707 7.08611 98.1255 7.60701C98.1596 7.64708 98.1857 7.74725 98.1636 7.7753C98.0955 7.85944 98.0013 7.98366 97.9172 7.98366C97.6808 7.98366 97.4444 7.93357 97.208 7.8975C96.9716 7.86144 96.7372 7.81137 96.4987 7.78332C96.4567 7.77731 96.3805 7.84142 96.3645 7.8875C96.3484 7.93558 96.3665 8.02774 96.4026 8.05579C97.212 8.68688 98.0354 9.29993 98.7706 10.0272C99.3036 10.5541 99.9667 10.8506 100.732 10.8546C101.78 10.8606 102.752 11.1692 103.725 11.5278C105.264 12.0968 106.769 12.7299 108.155 13.6134C109.279 14.3286 110.395 15.0579 111.503 15.7992C112.514 16.4783 113.362 17.3498 114.217 18.2093C114.56 18.5519 114.842 18.9907 115.245 19.2311C116.668 20.0786 117.297 21.5892 118.312 22.7732C118.389 22.8634 118.453 22.9796 118.479 23.0938C118.867 24.8087 119.941 26.2813 120.204 28.0503C120.31 28.7676 120.47 29.4748 120.516 30.2021C120.554 30.8051 120.57 31.4181 120.823 31.9831C120.865 32.0753 121.009 32.2075 121.071 32.1915C121.52 32.0653 121.548 32.4239 121.664 32.6783C121.714 32.6743 121.798 32.6723 121.798 32.6643C121.855 31.7006 121.921 30.735 121.702 29.7813C121.676 29.6651 121.608 29.559 121.56 29.4488L121.574 29.4608ZM115.019 51.6291C115.141 51.5069 115.261 51.3847 115.383 51.2625C115.401 51.2144 115.421 51.1663 115.439 51.1182C115.423 51.1703 115.409 51.2224 115.393 51.2725C115.271 51.3947 115.149 51.5149 115.027 51.6371L115.019 51.6291ZM113.927 53.0836C113.947 53.0335 113.969 52.9854 113.989 52.9354C113.971 52.9874 113.953 53.0395 113.935 53.0916L113.927 53.0836ZM119.735 43.6192C119.769 43.5892 119.811 43.5632 119.835 43.5251C119.853 43.499 119.849 43.457 119.855 43.4229C119.821 43.493 119.787 43.5651 119.753 43.6373C119.735 43.6894 119.715 43.7395 119.697 43.7915C119.711 43.7334 119.723 43.6773 119.735 43.6192ZM120.835 40.3576C120.891 40.2634 120.955 40.1713 121.003 40.0731C121.075 39.9269 121.037 39.8507 120.917 39.8888C120.889 39.8968 120.875 39.985 120.869 40.0391C120.857 40.1493 120.853 40.2594 120.847 40.3676L120.835 40.3576ZM44.8495 2.9189C44.3446 2.94896 43.8377 2.96698 43.407 3.28352L43.3909 3.2675C43.8918 3.21942 44.3907 3.16734 44.8354 2.90289C44.8815 2.87283 44.9276 2.84277 44.9737 2.81272C44.9336 2.84878 44.8915 2.88485 44.8495 2.9189ZM11.4137 45.8331L11.3936 45.815C11.3736 46.3039 11.2814 46.7727 11.0771 47.2235C10.8527 47.7203 10.6624 48.2312 10.436 48.7281C10.1274 49.4072 10.0132 50.1165 10.0653 50.8537C10.1074 51.4568 10.1475 52.0618 10.2356 52.6589C10.5582 54.8366 11.2554 56.8902 12.2772 58.8396C13.6656 61.4901 15.639 63.5597 18.3136 64.9341C19.4977 65.5431 20.6757 66.1622 21.8758 66.7372C23.2421 67.3943 24.6525 67.9333 26.1511 68.2238C27.3392 68.4542 28.5192 68.7306 29.6973 69.0071C30.4646 69.1874 31.2319 69.3237 32.0213 69.3938C33.0451 69.486 34.0628 69.6583 35.0766 69.8406C35.8559 69.9808 36.6312 70.079 37.4226 70.065C38.7589 70.0429 40.0852 70.1511 41.4035 70.3615C41.8803 70.4376 42.3672 70.4897 42.848 70.4977C44.3566 70.5197 45.8552 70.8744 47.3738 70.644C47.6062 70.6079 47.8547 70.686 48.0971 70.7C48.64 70.7321 49.185 70.7602 49.7279 70.7862C52.5207 70.9144 55.2935 70.6219 58.0663 70.3655C60.0537 70.1812 62.0372 69.9367 64.0006 69.53C66.1944 69.0752 68.3982 68.6565 70.616 68.344C72.4251 68.0895 74.1481 67.5226 75.9172 67.1279C76.8007 66.9315 77.6562 66.599 78.5397 66.4006C81.1422 65.8176 83.6565 64.9281 86.2109 64.1808C89.0018 63.3634 91.6924 62.2474 94.303 60.9612C96.4767 59.8914 98.6364 58.7895 100.642 57.4211C102.948 55.8484 105.112 54.0913 107.099 52.132C108.133 51.1122 109.147 50.0624 110.056 48.9324C111.771 46.8028 113.17 44.4627 114.366 42.0065C114.604 41.5176 114.794 41.0027 114.959 40.4858C115.754 37.9875 116.215 35.4391 116.127 32.8026C116.089 31.6466 115.908 30.5166 115.714 29.3806C115.287 26.8983 114.4 24.6024 113.003 22.5048C112.667 21.9999 112.36 21.475 111.996 20.9941C111.447 20.2729 110.982 19.4835 110.301 18.8685C109.72 18.3436 109.038 17.9268 108.616 17.2316C108.528 17.0874 108.355 16.9632 108.195 16.8971C107.51 16.6126 106.955 16.1658 106.438 15.6429C106.234 15.4345 105.941 15.2823 105.663 15.1861C104.901 14.9196 104.25 14.523 103.707 13.9159C103.517 13.7015 103.204 13.5934 102.944 13.4431C102.473 13.1706 101.94 12.9683 101.535 12.6197C100.215 11.4777 98.6324 11.2052 96.9775 11.1091C96.9174 11.1051 96.8554 11.1231 96.7952 11.1151C96.4386 11.063 96.074 11.0329 95.7274 10.9408C95.3788 10.8466 95.0442 10.7304 94.6716 10.7104C94.3169 10.6923 93.9583 10.5902 93.6217 10.4699C93.0528 10.2656 92.5038 10.0032 91.9369 9.79079C90.9732 9.43217 90.0195 9.02947 89.0318 8.76101C87.397 8.31624 85.7461 7.92956 84.0632 7.69716C82.8051 7.52286 81.5569 7.27644 80.3007 7.0801C77.6081 6.65737 74.9194 6.21861 72.1847 6.17453C71.7019 6.16652 71.217 6.12645 70.7362 6.07235C68.2579 5.78986 65.7696 5.82191 63.2954 5.99221C61.0655 6.14648 58.8236 6.26268 56.6078 6.6233C54.2778 7.00396 51.9437 7.34254 49.6718 8.02172C46.7708 8.89122 43.9059 9.86491 41.0649 10.9127C38.5005 11.8584 36.0162 12.9603 33.608 14.2445C31.308 15.4726 29.0942 16.843 27.0227 18.4337C23.8973 20.8359 20.9101 23.3903 18.2996 26.3614C18.1393 26.5437 17.975 26.722 17.8007 26.8903C17.1416 27.5234 16.5906 28.2427 16.0877 29.002C15.7211 29.5569 15.3625 30.1199 14.9658 30.6548C13.3651 32.8106 12.2371 35.2207 11.1893 37.673C10.9288 38.286 10.7746 38.9331 10.6904 39.6023C10.5842 40.4417 10.472 41.2872 10.2717 42.1086C9.86298 43.7795 9.90108 45.4704 9.95718 47.1634C9.95918 47.2375 10.1074 47.3176 10.2016 47.3737C10.2296 47.3898 10.3238 47.3477 10.3519 47.3056C10.7125 46.8128 11.0631 46.3219 11.4137 45.8331ZM121.744 36.1163C121.716 36.0662 121.698 35.9901 121.658 35.974C121.5 35.9119 121.338 35.8458 121.171 35.8298C121.083 35.8218 120.933 35.8999 120.909 35.97C120.883 36.0502 120.939 36.2064 121.011 36.2585C121.143 36.3547 121.308 36.4188 121.468 36.4589C121.624 36.5009 121.804 36.2585 121.744 36.1163ZM121.506 37.8593C121.456 37.8693 121.36 37.8813 121.36 37.8894C121.362 37.9855 121.38 38.0797 121.392 38.1758C121.444 38.1618 121.51 38.1658 121.542 38.1338C121.634 38.0396 121.616 37.9414 121.506 37.8593ZM120.62 38.0596L120.741 38.0336L120.669 37.9234L120.62 38.0596Z" fill="#EAE5FC"/>
<path d="M7.71528 27.2049C7.67921 27.3431 7.67723 27.5455 7.58106 27.6757C7.15432 28.2507 6.70556 28.8096 6.24677 29.3586C6.19268 29.4227 6.00433 29.4448 5.92419 29.4007C5.85006 29.3586 5.77993 29.1843 5.80798 29.1041C6.05039 28.423 6.37896 27.7839 6.85979 27.2369C6.97399 27.1067 7.1323 26.9985 7.29257 26.9344C7.37471 26.9003 7.51092 26.9745 7.61109 27.0225C7.65316 27.0406 7.66719 27.1167 7.71528 27.2049Z" fill="#EAE5FC"/>
<path d="M2.21375 52.5026C2.28588 53.0175 2.15568 53.2819 2.04148 53.2238C1.98939 53.1958 1.90725 53.1878 1.88521 53.1457C1.69488 52.7811 1.50456 52.4164 1.34027 52.0398C1.3002 51.9476 1.32623 51.7954 1.37632 51.7012C1.42641 51.607 1.53861 51.5089 1.63879 51.4908C1.73094 51.4748 1.90925 51.5349 1.93529 51.603C2.07353 51.9897 2.17769 52.3864 2.21375 52.5026Z" fill="#EAE5FC"/>
<path d="M1.29817 49.9702C1.35828 49.84 1.47049 49.7879 1.57066 49.8841C1.63878 49.9482 1.68285 50.0864 1.66683 50.1766C1.64078 50.3128 1.50052 50.3609 1.40035 50.2667C1.33223 50.2026 1.33023 50.0704 1.29817 49.9702Z" fill="#EAE5FC"/>
<path d="M53.2239 1.45036C52.8633 1.43834 52.5027 1.43232 52.1421 1.41028C52.1 1.40828 52.0299 1.32613 52.0299 1.28005C52.0299 1.23597 52.098 1.15185 52.1421 1.14985C52.5027 1.12781 52.8633 1.11777 53.226 1.10575L53.2039 1.08572C53.2039 1.21394 53.2039 1.34418 53.2019 1.4724L53.2239 1.45036Z" fill="#EAE5FC"/>
<path d="M119.376 21.8096C119.326 21.9157 119.286 22.0279 119.224 22.1261C119.198 22.1682 119.116 22.2142 119.08 22.2022C118.942 22.1541 118.934 22.05 119.07 21.9618C119.166 21.8997 119.286 21.8737 119.396 21.8296L119.376 21.8096Z" fill="#EAE5FC"/>
<path d="M2.67256 39.2737C2.6345 39.4941 2.60242 39.7165 2.55434 39.9369C2.54833 39.9669 2.42813 40.009 2.40809 39.991C2.33196 39.9229 2.20976 39.8247 2.21978 39.7546C2.25985 39.5021 2.48225 39.3959 2.6886 39.2878L2.67256 39.2737Z" fill="#EAE5FC"/>
<path d="M1.13792 47.3216C1.13792 47.3777 1.16196 47.4559 1.13391 47.4859C1.03374 47.5961 0.943564 47.5621 0.915515 47.4038C0.909505 47.3637 0.961585 47.2936 1.00566 47.2736C1.03371 47.2575 1.09384 47.3036 1.13792 47.3216Z" fill="#EAE5FC"/>
<path d="M118.176 20.6455C118.126 20.6415 118.048 20.6515 118.034 20.6275C118.012 20.5894 118.02 20.4853 118.04 20.4793C118.188 20.4292 118.236 20.4913 118.176 20.6455Z" fill="#EAE5FC"/>
<path d="M49.4594 1.66472L49.3492 1.69679L49.3653 1.60662L49.4594 1.66472Z" fill="#EAE5FC"/>
<path d="M118.286 18.5599C118.505 18.7502 118.593 19.0067 118.647 19.2792L118.661 19.2651C118.543 19.0227 118.425 18.7823 118.306 18.5399L118.286 18.5599Z" fill="#EAE5FC"/>
<path d="M119.018 19.6518C119.136 19.8962 119.254 20.1387 119.374 20.3831L119.392 20.367C119.272 20.1226 119.154 19.8802 119.034 19.6358C119.032 19.6358 119.018 19.6518 119.018 19.6518Z" fill="#EAE5FC"/>
<path d="M2.6886 39.2878C2.70263 39.2377 2.71665 39.1876 2.73068 39.1355C2.71064 39.1816 2.6926 39.2276 2.67256 39.2737L2.6886 39.2878Z" fill="#EAE5FC"/>
<path d="M115.738 17.8267L115.752 17.8126C115.754 17.8126 115.738 17.8267 115.738 17.8267Z" fill="#EAE5FC"/>
<path d="M118.306 18.5419L118.286 18.5619C118.286 18.5599 118.306 18.5419 118.306 18.5419Z" fill="#EAE5FC"/>
<path d="M118.647 19.2792C118.771 19.4034 118.893 19.5276 119.018 19.6498L119.034 19.6338C118.909 19.5096 118.785 19.3873 118.661 19.2631C118.661 19.2651 118.647 19.2792 118.647 19.2792Z" fill="#EAE5FC"/>
<path d="M30.7431 24.6645C30.6249 24.5944 30.5608 24.5743 30.5347 24.5322C30.5107 24.4942 30.5007 24.402 30.5267 24.38C30.7972 24.1456 31.0476 23.8771 31.3541 23.7008C32.6624 22.9495 33.9566 22.1621 35.315 21.513C36.9478 20.7317 38.6408 20.0745 40.3096 19.3693C40.8646 19.1349 41.4276 18.9125 41.9885 18.6921C42.4373 18.5158 42.8841 18.3235 43.3449 18.1853C45.6028 17.5141 47.8306 16.7548 50.0384 15.9314C50.6595 15.701 51.3006 15.5227 51.9437 15.3624C52.1641 15.3083 52.4205 15.3604 52.6489 15.4125C52.7271 15.4305 52.7832 15.5888 52.8293 15.693C52.8473 15.735 52.8292 15.8232 52.7952 15.8532C52.663 15.9694 52.5328 16.1157 52.3745 16.1698C51.6893 16.4002 50.9921 16.5985 50.3009 16.8169C48.3996 17.4179 46.5063 18.041 44.601 18.618C42.3431 19.3012 40.1313 20.1066 37.9676 21.0442C37.1922 21.3808 36.4369 21.7594 35.6756 22.1241C35.349 22.2803 35.0365 22.4707 34.704 22.6089C33.584 23.0737 32.5141 23.6247 31.5044 24.2958C31.258 24.4601 30.9715 24.5563 30.7431 24.6645Z" fill="#EAE5FC"/>
<path d="M17.5923 36.7293C17.7106 36.4609 17.7727 36.1443 17.957 35.9299C18.7283 35.0324 19.5016 34.1328 20.4974 33.4637L20.4794 33.4457C20.3952 33.666 20.3571 33.9225 20.2169 34.0988C19.4376 35.0705 18.6241 36.0121 17.5783 36.7173L17.5923 36.7293Z" fill="#EAE5FC"/>
<path d="M11.4137 45.8331C11.5259 45.1819 11.8304 44.6089 12.147 44.042C12.3213 43.7294 12.5416 43.4549 12.8622 43.2766L12.8522 43.2686C12.6338 44.2704 12.2672 45.1879 11.3936 45.813C11.3936 45.815 11.4137 45.8331 11.4137 45.8331Z" fill="#EAE5FC"/>
<path d="M16.8471 37.4526C16.7409 37.9034 16.4804 38.25 16.1278 38.5365L16.1398 38.5485C16.26 38.1077 16.4845 37.7351 16.8611 37.4646C16.8591 37.4646 16.8471 37.4526 16.8471 37.4526Z" fill="#EAE5FC"/>
<path d="M13.5754 42.1747C13.5213 42.6636 13.2769 43.0262 12.8522 43.2686L12.8622 43.2766C12.9263 42.7938 13.1006 42.3851 13.5914 42.1908L13.5754 42.1747Z" fill="#EAE5FC"/>
<path d="M28.5032 25.8265C28.5453 25.7904 28.5854 25.7544 28.6274 25.7183C28.5794 25.7484 28.5333 25.7784 28.4852 25.8085L28.5032 25.8265Z" fill="#EAE5FC"/>
<path d="M15.3905 39.2677C15.2723 39.5081 15.1521 39.7486 15.0339 39.989L15.052 40.005C15.1702 39.7646 15.2904 39.5242 15.4086 39.2837L15.3905 39.2677Z" fill="#EAE5FC"/>
<path d="M14.3187 41.0949C14.4389 40.8545 14.5591 40.614 14.6793 40.3756L14.6633 40.3596C14.5451 40.602 14.4269 40.8424 14.3087 41.0849L14.3187 41.0949Z" fill="#EAE5FC"/>
<path d="M28.4852 25.8085C28.369 25.9367 28.2528 26.0649 28.1346 26.1951L28.1165 26.1771C28.2448 26.0609 28.373 25.9427 28.5012 25.8265C28.5032 25.8265 28.4852 25.8085 28.4852 25.8085Z" fill="#EAE5FC"/>
<path d="M28.1346 26.1931L28.0564 26.2552L28.1165 26.1771L28.1346 26.1931Z" fill="#EAE5FC"/>
<path d="M17.5803 36.7173C17.4601 36.8395 17.3379 36.9597 17.2177 37.0819L17.2297 37.0939C17.3519 36.9737 17.4721 36.8515 17.5944 36.7313C17.5924 36.7293 17.5803 36.7173 17.5803 36.7173Z" fill="#EAE5FC"/>
<path d="M17.2157 37.0819C17.0915 37.2062 16.9693 37.3284 16.8451 37.4526L16.8571 37.4646C16.9813 37.3404 17.1035 37.2182 17.2277 37.0939L17.2157 37.0819Z" fill="#EAE5FC"/>
<path d="M16.1258 38.5365C16.0036 38.6567 15.8834 38.7789 15.7612 38.8991L15.7732 38.9111C15.8934 38.7889 16.0156 38.6687 16.1358 38.5465C16.1378 38.5485 16.1258 38.5365 16.1258 38.5365Z" fill="#EAE5FC"/>
<path d="M15.4066 39.2837C15.5288 39.1595 15.653 39.0353 15.7752 38.9111L15.7632 38.8991C15.639 39.0213 15.5148 39.1455 15.3905 39.2677L15.4066 39.2837Z" fill="#EAE5FC"/>
<path d="M14.6793 40.3756C14.8035 40.2534 14.9258 40.1292 15.05 40.007L15.0319 39.991C14.9097 40.1132 14.7855 40.2374 14.6633 40.3596L14.6793 40.3756Z" fill="#EAE5FC"/>
</svg>
