<svg width="70" height="71" viewBox="0 0 70 71" fill="none" xmlns="http://www.w3.org/2000/svg">
<path d="M0 35.408C0 16.078 15.67 0.407959 35 0.407959C54.33 0.407959 70 16.078 70 35.408V67.408C70 69.0648 68.6569 70.408 67 70.408H3C1.34315 70.408 0 69.0648 0 67.408V35.408Z" fill="#FFA41B" fill-opacity="0.15"/>
<g clip-path="url(#clip0_53_175)">
<path d="M35 35.9182C37.7991 35.9182 40.0764 33.641 40.0764 30.8418C40.0765 28.0426 37.7991 25.7654 35 25.7654C32.2008 25.7654 29.9236 28.0426 29.9236 30.8418C29.9236 33.641 32.2008 35.9182 35 35.9182ZM35 26.9775C37.1308 26.9775 38.8643 28.711 38.8643 30.8418C38.8643 32.9726 37.1308 34.7061 35 34.7061C32.8692 34.7061 31.1357 32.9726 31.1357 30.8418C31.1357 28.711 32.8692 26.9775 35 26.9775Z" fill="#FFA41B"/>
<path d="M43.4786 47.5211L41.8139 40.6153C41.6163 39.7957 40.8895 39.2233 40.0463 39.2233C38.9889 39.2233 30.8988 39.2233 29.9537 39.2233C29.1105 39.2233 28.3837 39.7957 28.186 40.6153L26.5213 47.5211C26.2458 48.6643 27.1115 49.7654 28.2889 49.7654H41.7111C42.887 49.7654 43.7546 48.666 43.4786 47.5211ZM28.2889 48.5532C27.897 48.5532 27.6078 48.1867 27.6997 47.8052L29.3645 40.8994C29.4303 40.6261 29.6726 40.4354 29.9537 40.4354H32.713L31.9486 45.8421C31.926 46.0021 31.9682 46.1644 32.0658 46.2931L33.7797 48.5532H28.2889ZM33.1843 45.7619L33.9372 40.4355H36.0628L36.8158 45.7619L35 48.1563L33.1843 45.7619ZM41.7111 48.5532H36.2203L37.9341 46.2932C38.0317 46.1644 38.0739 46.0021 38.0513 45.8422L37.2869 40.4355H40.0462C40.3272 40.4355 40.5696 40.6263 40.6354 40.8995L42.3002 47.8052C42.3921 48.1864 42.1034 48.5532 41.7111 48.5532Z" fill="#FFA41B"/>
</g>
<defs>
<clipPath id="clip0_53_175">
<rect width="24" height="24" fill="white" transform="translate(23 25.7654)"/>
</clipPath>
</defs>
</svg>
