<svg width="70" height="71" viewBox="0 0 70 71" fill="none" xmlns="http://www.w3.org/2000/svg">
<path d="M0 35.408C0 16.078 15.67 0.407959 35 0.407959C54.33 0.407959 70 16.078 70 35.408V67.408C70 69.0648 68.6569 70.408 67 70.408H3C1.34315 70.408 0 69.0648 0 67.408V35.408Z" fill="#03F856" fill-opacity="0.15"/>
<g clip-path="url(#clip0_54_258)">
<path d="M35 31.283C32.525 31.283 30.5 33.308 30.5 35.783C30.5 38.258 32.525 40.283 35 40.283C37.475 40.283 39.5 38.258 39.5 35.783C39.5 33.308 37.475 31.283 35 31.283ZM35 38.783C33.35 38.783 32 37.433 32 35.783C32 34.133 33.35 32.783 35 32.783C36.65 32.783 38 34.133 38 35.783C38 37.433 36.65 38.783 35 38.783Z" fill="#00BB40"/>
<path d="M35 42.3079C32.2063 42.3079 29.525 43.4704 27.6125 45.5141L27.1063 46.0579L28.1938 47.0891L28.7 46.5454C30.35 44.7829 32.5813 43.8079 35 43.8079C37.4188 43.8079 39.65 44.7829 41.3 46.5454L41.8063 47.0891L42.8938 46.0579L42.3875 45.5141C40.475 43.4891 37.7938 42.3079 35 42.3079Z" fill="#00BB40"/>
<path d="M41.1875 32.3892V33.8892C42.95 33.8892 44.5812 34.6017 45.8 35.8954L46.8875 34.8642C45.425 33.2892 43.3438 32.3892 41.1875 32.3892Z" fill="#00BB40"/>
<path d="M44.7688 27.1579C44.7688 25.1892 43.1563 23.5767 41.1875 23.5767C39.2188 23.5767 37.6063 25.1892 37.6063 27.1579C37.6063 29.1267 39.2188 30.7392 41.1875 30.7392C43.1563 30.7392 44.7688 29.1267 44.7688 27.1579ZM39.1063 27.1579C39.1063 26.0142 40.0438 25.0767 41.1875 25.0767C42.3313 25.0767 43.2688 26.0142 43.2688 27.1579C43.2688 28.3017 42.3313 29.2392 41.1875 29.2392C40.0438 29.2392 39.1063 28.3017 39.1063 27.1579Z" fill="#00BB40"/>
<path d="M28.8125 32.3892C26.6562 32.3892 24.575 33.2892 23.1125 34.8642L24.2 35.8954C25.4 34.6017 27.05 33.8892 28.8125 33.8892V32.3892Z" fill="#00BB40"/>
<path d="M32.3938 27.1579C32.3938 25.1892 30.7813 23.5767 28.8125 23.5767C26.8438 23.5767 25.2313 25.1892 25.2313 27.1579C25.2313 29.1267 26.8438 30.7392 28.8125 30.7392C30.7813 30.7392 32.3938 29.1267 32.3938 27.1579ZM28.8125 29.2392C27.6688 29.2392 26.7313 28.3017 26.7313 27.1579C26.7313 26.0142 27.6688 25.0767 28.8125 25.0767C29.9563 25.0767 30.8938 26.0142 30.8938 27.1579C30.8938 28.3017 29.9563 29.2392 28.8125 29.2392Z" fill="#00BB40"/>
</g>
<defs>
<clipPath id="clip0_54_258">
<rect width="24" height="24" fill="white" transform="translate(23 23.408)"/>
</clipPath>
</defs>
</svg>
