<svg width="231" height="79" viewBox="0 0 231 79" fill="none" xmlns="http://www.w3.org/2000/svg">
<path d="M228.143 28.8006C228.083 28.3799 228.026 27.9592 227.965 27.5384C227.908 27.1578 227.567 26.8633 227.029 26.6068C226.798 26.4966 226.522 26.2923 226.567 26.1601C226.715 25.7073 226.128 25.523 225.643 25.2705C225.136 25.0061 225.211 24.7857 225.851 24.5493C226.643 24.2588 226.628 24.2528 226.056 23.6978L226.079 23.7098C225.677 22.7882 224.833 21.9688 223.988 21.1494L224.026 21.1694C224.022 20.6826 224.018 20.1957 224.014 19.7069L223.98 19.7229C225.287 20.4382 225.95 21.3477 226.662 22.2393C227.643 23.4654 228.382 24.7416 229.552 25.9277C229.916 26.2963 230.075 26.729 230.234 27.1417C230.624 28.1515 230.924 29.1693 230.927 30.205C230.931 30.8722 230.954 31.5373 230.984 32.2045C231.068 33.8453 230.818 35.4701 230.283 37.0869C228.969 41.0618 226.742 44.8644 222.518 48.2623C220.128 50.1836 217.624 52.0688 215.063 53.9281C213.033 55.4026 210.495 56.6407 207.927 57.8488C205.699 58.8946 203.449 59.9244 201.176 60.9402C197.582 62.5469 193.745 63.9734 189.593 65.1554C183.036 67.0227 176.403 68.8118 169.395 70.1681C165.096 70.9995 160.732 71.7368 156.387 72.5001C154.107 72.9028 151.789 73.2474 149.516 73.6642C145.398 74.4195 141.201 75.0486 136.963 75.5434C131.603 76.1705 126.231 76.7896 120.784 77.1903C116.705 77.4888 112.644 77.8754 108.553 78.1299C104.466 78.3843 100.39 78.7109 96.2532 78.7409C93.3933 78.761 90.5409 78.9132 87.681 78.9613C85.0483 79.0054 82.4119 79.0114 79.7982 78.781C79.2376 78.7309 78.6581 78.7229 78.0861 78.7209C74.2981 78.7109 70.5517 78.4304 66.7903 78.2501C65.313 78.18 63.8433 78.0357 62.3811 77.8895C60.9189 77.7432 59.4946 77.5428 58.2521 77.05C57.3279 76.6834 56.2029 76.5291 55.0665 76.4089C52.9338 76.1845 50.8125 75.9221 48.6799 75.6957C44.7328 75.2749 40.9751 74.5397 37.2137 73.8044C36.2477 73.6161 35.3084 73.3877 34.3387 73.2013C31.9598 72.7486 29.6907 72.1916 27.5467 71.4724C26.2967 71.0516 24.9596 70.683 23.5845 70.3905C21.1867 69.8796 19.2397 69.0442 17.4594 68.1005C15.3608 66.9846 13.3683 65.8126 11.5766 64.5524C10.6865 63.9253 9.87206 63.2602 9.13719 62.579C8.75082 62.2204 8.44778 61.7956 8.38338 61.3889C8.30005 60.858 8.194 60.4433 6.98185 60.3572C6.83033 60.3471 6.60302 60.0346 6.66363 59.8944C6.84924 59.4857 6.72044 59.1931 5.99315 58.9788C5.70526 58.8946 5.42118 58.7624 5.2583 58.6142C5.0992 58.4699 4.93251 58.2315 5.04994 58.1133C5.80375 57.36 5.21665 56.7068 4.61436 56.0477C4.50072 55.9235 4.27722 55.9055 4.03858 55.9676C3.67872 56.0597 3.38321 56.0016 3.13699 55.8534C2.23924 55.3124 2.2317 55.03 3.084 54.4309C3.22037 54.3348 3.35667 54.2406 3.49304 54.1444C2.95893 50.3999 2.9855 46.6475 3.25823 42.899C3.33778 41.8191 3.7393 40.7332 4.19765 39.6734C5.2204 37.3113 6.52728 34.9993 8.20536 32.7314C9.67889 30.742 11.6183 28.9048 13.6828 27.0896C14.5085 26.3644 15.4062 25.6592 16.2737 24.946C16.4593 24.7937 16.6108 24.6214 16.8457 24.4952C19.0844 23.2811 20.8458 21.8446 23.2057 20.6846C24.2095 20.1897 25.1451 19.6548 26.1224 19.1439C26.9558 18.7112 27.6529 18.2544 27.6983 17.5872C27.7248 17.2146 28.115 16.8981 28.6377 16.6436C30.1529 15.9063 31.6492 15.157 33.2023 14.4438C34.672 13.7706 36.2023 13.1356 37.7099 12.4844C37.9751 12.3702 38.2402 12.252 38.5205 12.1478C39.2705 11.8694 39.9713 11.5328 40.7933 11.3344C43.6153 10.6553 45.8958 9.48925 48.8163 8.89823C50.1989 8.61774 51.483 8.20502 52.8201 7.86243C53.9528 7.57393 55.0702 7.25337 56.2521 7.03299C57.7786 6.7465 59.2067 6.37986 60.5439 5.90705C61.6992 5.49834 62.9152 5.1818 64.3205 5.08563C64.7675 5.05558 65.2069 4.96742 65.6273 4.87526C67.6388 4.44051 69.6578 4.02179 71.7526 3.70324C73.1844 3.48486 74.4875 3.10219 75.7186 2.64741C76.264 2.44506 76.783 2.52119 77.4724 2.87781C77.7678 3.03007 78.0747 3.07818 78.3436 2.94595C78.9232 2.65945 79.4459 2.33888 80.0103 2.02233C80.5633 1.95421 81.1278 1.90013 81.6695 1.80997C82.9044 1.60762 84.1128 1.57356 85.3855 1.75387C86.431 1.90213 86.4537 1.85806 87.7681 1.30911C91.5599 1.6517 95.2646 1.40526 98.9124 0.796211L98.8707 0.820251C99.1889 0.79621 99.5184 0.788195 99.8253 0.744119C100.151 0.696036 100.617 0.820271 100.833 0.489699C100.14 0.469665 99.5071 0.451628 98.8707 0.433597L98.9124 0.453626C101.34 -0.139399 103.829 -0.0392165 106.291 0.337434C107.307 0.493704 108.261 0.607898 109.314 0.483683C109.867 0.417569 110.454 0.411545 111.023 0.419559C112.068 0.435586 113.083 0.403532 114.034 0.145085C114.466 0.0268811 114.928 0.036915 115.36 0.137088C116.03 0.291355 116.686 0.311389 117.348 0.137088C117.89 -0.00515768 118.466 -0.0592531 119 0.0849962C120.303 0.435602 121.659 0.453628 123.015 0.255286C124.262 0.0729705 125.481 0.0429146 126.75 0.151102C127.303 0.199185 127.887 0.139096 128.459 0.141099C128.913 0.143102 129.432 0.0910085 129.811 0.187175C131.216 0.549801 132.697 0.499712 134.182 0.509729C136.004 0.52175 137.815 0.748132 139.66 0.575835C140.186 0.527752 140.773 0.678013 141.334 0.7281C142.804 0.856321 144.27 0.986538 145.77 0.844292C146.217 0.802219 146.69 0.784207 147.137 0.814259C152.024 1.13481 156.918 1.42531 161.653 2.18663C162.308 2.29281 162.979 2.403 163.566 2.58331C165.971 3.31457 168.581 3.75935 171.217 4.17006C174.407 4.66692 177.547 5.23588 180.604 5.92707C181.759 6.18753 182.949 6.42596 183.809 6.94686C183.873 6.98692 183.922 7.08709 183.881 7.11514C183.752 7.19929 183.574 7.32351 183.415 7.32351C182.968 7.32351 182.521 7.27341 182.074 7.23735C181.627 7.20129 181.184 7.15121 180.733 7.12316C180.653 7.11715 180.509 7.18127 180.479 7.22734C180.449 7.27543 180.483 7.36758 180.551 7.39563C182.081 8.02672 183.638 8.63977 185.028 9.36703C186.036 9.89394 187.29 10.1905 188.737 10.1945C190.718 10.2005 192.555 10.509 194.396 10.8676C197.305 11.4366 200.15 12.0697 202.771 12.9532C204.896 13.6685 207.006 14.3977 209.101 15.139C211.014 15.8182 212.616 16.6897 214.234 17.5492C214.881 17.8918 215.416 18.3305 216.177 18.5709C218.866 19.4184 220.056 20.929 221.976 22.1131C222.12 22.2032 222.242 22.3194 222.291 22.4336C223.026 24.1486 225.056 25.6211 225.552 27.3902C225.753 28.1074 226.056 28.8147 226.143 29.5419C226.215 30.145 226.245 30.758 226.723 31.323C226.802 31.4151 227.075 31.5474 227.192 31.5313C228.041 31.4051 228.094 31.7637 228.314 32.0182C228.408 32.0142 228.567 32.0122 228.567 32.0041C228.673 31.0405 228.798 30.0748 228.386 29.1212C228.336 29.005 228.208 28.8988 228.117 28.7886L228.143 28.8006ZM215.749 50.9689C215.98 50.8467 216.207 50.7245 216.438 50.6023C216.472 50.5542 216.51 50.5061 216.544 50.458C216.514 50.5101 216.488 50.5622 216.457 50.6123C216.226 50.7345 215.995 50.8547 215.764 50.977L215.749 50.9689ZM213.684 52.4235C213.722 52.3734 213.764 52.3253 213.802 52.2752C213.768 52.3273 213.734 52.3794 213.7 52.4315L213.684 52.4235ZM224.666 42.9591C224.73 42.929 224.81 42.903 224.855 42.8649C224.889 42.8389 224.882 42.7968 224.893 42.7628C224.829 42.8329 224.764 42.905 224.7 42.9771C224.666 43.0292 224.628 43.0793 224.594 43.1314C224.62 43.0733 224.643 43.0172 224.666 42.9591ZM226.745 39.6974C226.851 39.6033 226.973 39.5111 227.064 39.4129C227.2 39.2667 227.128 39.1906 226.901 39.2286C226.848 39.2367 226.821 39.3248 226.81 39.3789C226.787 39.4891 226.779 39.5993 226.768 39.7075L226.745 39.6974ZM83.0786 2.25875C82.124 2.2888 81.1657 2.30682 80.3513 2.62337L80.3209 2.60735C81.2679 2.55927 82.2111 2.50719 83.0521 2.24273C83.1392 2.21268 83.2263 2.18261 83.3134 2.15256C83.2376 2.18862 83.1581 2.22469 83.0786 2.25875ZM19.861 45.1729L19.8231 45.1549C19.7852 45.6437 19.6109 46.1125 19.2245 46.5633C18.8003 47.0602 18.4405 47.5711 18.0124 48.0679C17.4291 48.7471 17.2131 49.4563 17.3116 50.1936C17.3911 50.7966 17.4669 51.4017 17.6336 51.9987C18.2435 54.1765 19.5617 56.23 21.4935 58.1794C24.1186 60.83 27.8498 62.8996 32.9068 64.2739C35.1455 64.883 37.3728 65.5021 39.6418 66.077C42.2252 66.7342 44.8919 67.2731 47.7253 67.5636C49.9716 67.794 52.2027 68.0705 54.43 68.347C55.8808 68.5273 57.3317 68.6635 58.8241 68.7336C60.7598 68.8258 62.6841 68.9981 64.6008 69.1804C66.0743 69.3207 67.5403 69.4188 69.0365 69.4048C71.5631 69.3828 74.0708 69.4909 76.5633 69.7013C77.4648 69.7774 78.3853 69.8295 79.2944 69.8375C82.1468 69.8596 84.9802 70.2142 87.8515 69.9838C88.2909 69.9477 88.7606 70.0259 89.2189 70.0399C90.2455 70.0719 91.2758 70.1 92.3024 70.126C97.5828 70.2543 102.825 69.9618 108.068 69.7053C111.826 69.521 115.576 69.2766 119.288 68.8699C123.436 68.4151 127.603 67.9963 131.796 67.6838C135.216 67.4294 138.474 66.8624 141.819 66.4677C143.489 66.2714 145.107 65.9388 146.777 65.7405C151.698 65.1574 156.452 64.2679 161.281 63.5206C166.558 62.7032 171.645 61.5873 176.581 60.3011C180.691 59.2312 184.775 58.1293 188.566 56.761C192.926 55.1882 197.017 53.4312 200.775 51.4718C202.73 50.452 204.646 49.4022 206.366 48.2723C209.609 46.1426 212.253 43.8025 214.514 41.3463C214.965 40.8574 215.325 40.3426 215.635 39.8257C217.139 37.3274 218.01 34.779 217.844 32.1424C217.772 30.9864 217.431 29.8564 217.063 28.7205C216.257 26.2382 214.578 23.9422 211.938 21.8446C211.302 21.3397 210.722 20.8148 210.033 20.334C208.995 19.6127 208.116 18.8234 206.828 18.2083C205.73 17.6834 204.442 17.2667 203.643 16.5715C203.476 16.4272 203.15 16.303 202.847 16.2369C201.552 15.9524 200.502 15.5056 199.525 14.9827C199.139 14.7744 198.586 14.6221 198.059 14.5259C196.62 14.2595 195.389 13.8628 194.362 13.2558C194.002 13.0414 193.411 12.9332 192.919 12.7829C192.029 12.5105 191.021 12.3081 190.256 11.9595C187.759 10.8175 184.767 10.5451 181.638 10.4489C181.524 10.4449 181.407 10.4629 181.293 10.4549C180.619 10.4028 179.93 10.3728 179.274 10.2806C178.615 10.1865 177.983 10.0703 177.278 10.0502C176.608 10.0322 175.93 9.92999 175.293 9.80979C174.217 9.60543 173.18 9.343 172.108 9.13063C170.286 8.77201 168.482 8.36932 166.615 8.10085C163.524 7.65608 160.403 7.2694 157.221 7.037C154.842 6.8627 152.482 6.61628 150.107 6.41994C145.016 5.99721 139.932 5.55845 134.762 5.51437C133.849 5.50636 132.932 5.46629 132.023 5.4122C127.337 5.12971 122.633 5.16176 117.955 5.33205C113.739 5.48632 109.5 5.60252 105.31 5.96315C100.905 6.34381 96.4919 6.68239 92.1963 7.36156C86.7113 8.23106 81.2945 9.20476 75.9231 10.2526C71.0745 11.1982 66.3773 12.3001 61.8242 13.5843C57.4756 14.8125 53.2899 16.1828 49.3731 17.7736C43.4639 20.1757 37.816 22.7301 32.8802 25.7013C32.5772 25.8836 32.2666 26.0619 31.937 26.2302C30.6908 26.8633 29.6491 27.5825 28.6983 28.3418C28.0051 28.8968 27.3271 29.4597 26.5771 29.9947C23.5505 32.1504 21.4178 34.5606 19.4367 37.0128C18.9443 37.6259 18.6526 38.273 18.4935 38.9421C18.2927 39.7816 18.0806 40.6271 17.7018 41.4485C16.929 43.1194 17.0011 44.8103 17.1071 46.5032C17.1109 46.5773 17.3912 46.6575 17.5692 46.7136C17.6223 46.7296 17.8003 46.6875 17.8533 46.6455C18.5352 46.1526 19.1981 45.6617 19.861 45.1729ZM228.465 35.4561C228.412 35.406 228.378 35.3299 228.302 35.3139C228.003 35.2518 227.696 35.1857 227.382 35.1696C227.215 35.1616 226.931 35.2397 226.886 35.3099C226.836 35.39 226.942 35.5463 227.079 35.5984C227.329 35.6945 227.639 35.7586 227.942 35.7987C228.238 35.8408 228.579 35.5984 228.465 35.4561ZM228.014 37.1991C227.92 37.2092 227.738 37.2212 227.738 37.2292C227.742 37.3254 227.776 37.4195 227.799 37.5157C227.897 37.5017 228.022 37.5057 228.083 37.4736C228.257 37.3794 228.223 37.2813 228.014 37.1991ZM226.34 37.3995L226.567 37.3734L226.431 37.2632L226.34 37.3995Z" fill="#EAE5FC"/>
<path d="M12.8683 26.5447C12.8001 26.6829 12.7964 26.8853 12.6146 27.0155C11.8077 27.5905 10.9592 28.1495 10.0918 28.6984C9.98951 28.7625 9.6334 28.7846 9.48188 28.7405C9.34173 28.6984 9.20912 28.5241 9.26215 28.444C9.7205 27.7628 10.3417 27.1237 11.2508 26.5768C11.4668 26.4465 11.7661 26.3384 12.0691 26.2742C12.2244 26.2402 12.4819 26.3143 12.6713 26.3624C12.7509 26.3804 12.7774 26.4566 12.8683 26.5447Z" fill="#EAE5FC"/>
<path d="M2.46649 51.8424C2.60286 52.3573 2.35669 52.6218 2.14077 52.5637C2.04229 52.5356 1.88697 52.5276 1.8453 52.4855C1.48544 52.1209 1.1256 51.7563 0.814981 51.3796C0.739221 51.2875 0.788439 51.1352 0.883138 51.041C0.977838 50.9469 1.18999 50.8487 1.37939 50.8307C1.55363 50.8146 1.89076 50.8748 1.94 50.9429C2.20137 51.3295 2.39831 51.7262 2.46649 51.8424Z" fill="#EAE5FC"/>
<path d="M0.735383 49.3101C0.849022 49.1798 1.06119 49.1278 1.25059 49.2239C1.37938 49.288 1.46271 49.4263 1.4324 49.5164C1.38316 49.6527 1.11797 49.7007 0.928573 49.6066C0.799782 49.5425 0.79599 49.4102 0.735383 49.3101Z" fill="#EAE5FC"/>
<path d="M98.9124 0.790208C98.2306 0.778188 97.5487 0.772163 96.8668 0.750125C96.7873 0.748121 96.6548 0.665974 96.6548 0.619895C96.6548 0.575818 96.7835 0.491693 96.8668 0.489689C97.5487 0.467651 98.2306 0.457615 98.9162 0.445594L98.8745 0.425565C98.8745 0.553786 98.8745 0.684022 98.8707 0.812244L98.9124 0.790208Z" fill="#EAE5FC"/>
<path d="M223.988 21.1494C223.893 21.2556 223.817 21.3678 223.7 21.4659C223.651 21.508 223.495 21.5541 223.427 21.5421C223.166 21.494 223.151 21.3898 223.408 21.3017C223.59 21.2396 223.817 21.2135 224.026 21.1694L223.988 21.1494Z" fill="#EAE5FC"/>
<path d="M3.33397 38.6136C3.26199 38.8339 3.20135 39.0563 3.11044 39.2767C3.09908 39.3068 2.87181 39.3488 2.83393 39.3308C2.68998 39.2627 2.45894 39.1645 2.47788 39.0944C2.55364 38.842 2.97414 38.7358 3.3643 38.6276L3.33397 38.6136Z" fill="#EAE5FC"/>
<path d="M0.432393 46.6615C0.432393 46.7176 0.477841 46.7957 0.42481 46.8258C0.235411 46.9359 0.064918 46.9019 0.0118863 46.7436C0.000522328 46.7036 0.0989914 46.6334 0.182327 46.6134C0.235359 46.5974 0.349057 46.6434 0.432393 46.6615Z" fill="#EAE5FC"/>
<path d="M221.719 19.9854C221.624 19.9814 221.476 19.9914 221.45 19.9674C221.408 19.9293 221.423 19.8251 221.461 19.8191C221.742 19.769 221.832 19.8311 221.719 19.9854Z" fill="#EAE5FC"/>
<path d="M91.7948 1.00457L91.5864 1.03663L91.6167 0.94646L91.7948 1.00457Z" fill="#EAE5FC"/>
<path d="M221.927 17.8998C222.34 18.0901 222.507 18.3465 222.609 18.619L222.636 18.605C222.412 18.3626 222.189 18.1221 221.965 17.8797L221.927 17.8998Z" fill="#EAE5FC"/>
<path d="M223.31 18.9917C223.533 19.2361 223.757 19.4785 223.984 19.7229L224.018 19.7069C223.791 19.4625 223.567 19.22 223.34 18.9756C223.336 18.9756 223.31 18.9917 223.31 18.9917Z" fill="#EAE5FC"/>
<path d="M3.3643 38.6276C3.39081 38.5775 3.41733 38.5274 3.44385 38.4753C3.40597 38.5214 3.37185 38.5675 3.33397 38.6136L3.3643 38.6276Z" fill="#EAE5FC"/>
<path d="M217.109 17.1665L217.135 17.1525C217.139 17.1525 217.109 17.1665 217.109 17.1665Z" fill="#EAE5FC"/>
<path d="M221.965 17.8817L221.927 17.9018C221.927 17.8998 221.965 17.8817 221.965 17.8817Z" fill="#EAE5FC"/>
<path d="M222.609 18.619C222.844 18.7432 223.075 18.8674 223.31 18.9897L223.34 18.9736C223.105 18.8494 222.87 18.7272 222.636 18.603C222.636 18.605 222.609 18.619 222.609 18.619Z" fill="#EAE5FC"/>
<path d="M56.4075 24.0043C56.184 23.9342 56.0627 23.9142 56.0135 23.8721C55.968 23.834 55.9491 23.7419 55.9983 23.7198C56.5097 23.4854 56.9832 23.2169 57.5627 23.0406C60.0363 22.2893 62.4833 21.502 65.0516 20.8528C68.1388 20.0715 71.3397 19.4144 74.4951 18.7092C75.5443 18.4748 76.6087 18.2524 77.6694 18.032C78.5179 17.8557 79.3626 17.6633 80.2338 17.5251C84.5029 16.8539 88.7151 16.0946 92.8895 15.2712C94.0637 15.0408 95.2759 14.8625 96.4918 14.7022C96.9085 14.6481 97.3934 14.7002 97.8252 14.7523C97.9729 14.7703 98.0791 14.9286 98.1662 15.0328C98.2003 15.0749 98.1661 15.163 98.1017 15.1931C97.8517 15.3093 97.6056 15.4555 97.3063 15.5096C96.0108 15.74 94.6926 15.9384 93.3857 16.1567C89.7909 16.7578 86.2113 17.3809 82.6089 17.9579C78.3399 18.641 74.1579 19.4464 70.0669 20.384C68.6009 20.7206 67.1729 21.0993 65.7334 21.4639C65.116 21.6202 64.5251 21.8105 63.8963 21.9488C61.7788 22.4136 59.756 22.9645 57.8468 23.6357C57.3809 23.7999 56.8393 23.8961 56.4075 24.0043Z" fill="#EAE5FC"/>
<path d="M31.5431 36.0692C31.7666 35.8007 31.884 35.4842 32.2325 35.2698C33.6909 34.3722 35.153 33.4727 37.0357 32.8035L37.0016 32.7855C36.8425 33.0059 36.7705 33.2623 36.5054 33.4386C35.0318 34.4103 33.4939 35.3519 31.5165 36.0571L31.5431 36.0692Z" fill="#EAE5FC"/>
<path d="M19.861 45.1729C20.0731 44.5218 20.6489 43.9488 21.2474 43.3818C21.5769 43.0693 21.9936 42.7948 22.5997 42.6165L22.5807 42.6085C22.1679 43.6102 21.4746 44.5278 19.8231 45.1529C19.8231 45.1549 19.861 45.1729 19.861 45.1729Z" fill="#EAE5FC"/>
<path d="M30.134 36.7924C29.9332 37.2432 29.4407 37.5898 28.774 37.8763L28.7968 37.8883C29.0241 37.4475 29.4484 37.0749 30.1605 36.8045C30.1567 36.8045 30.134 36.7924 30.134 36.7924Z" fill="#EAE5FC"/>
<path d="M23.9482 41.5146C23.8459 42.0034 23.3838 42.3661 22.5807 42.6085L22.5997 42.6165C22.7209 42.1336 23.0504 41.7249 23.9785 41.5306L23.9482 41.5146Z" fill="#EAE5FC"/>
<path d="M52.1724 25.1663C52.252 25.1303 52.3278 25.0942 52.4073 25.0581C52.3164 25.0882 52.2293 25.1182 52.1384 25.1483L52.1724 25.1663Z" fill="#EAE5FC"/>
<path d="M27.3801 38.6076C27.1566 38.848 26.9293 39.0884 26.7058 39.3288L26.7399 39.3448C26.9634 39.1044 27.1907 38.864 27.4142 38.6236L27.3801 38.6076Z" fill="#EAE5FC"/>
<path d="M25.3536 40.4347C25.5809 40.1943 25.8081 39.9539 26.0353 39.7155L26.0051 39.6994C25.7816 39.9419 25.5581 40.1823 25.3346 40.4247L25.3536 40.4347Z" fill="#EAE5FC"/>
<path d="M52.1384 25.1483C51.9187 25.2765 51.699 25.4048 51.4755 25.535L51.4414 25.5169C51.6838 25.4007 51.9262 25.2825 52.1686 25.1663C52.1724 25.1663 52.1384 25.1483 52.1384 25.1483Z" fill="#EAE5FC"/>
<path d="M51.4755 25.533L51.3277 25.5951L51.4414 25.5169L51.4755 25.533Z" fill="#EAE5FC"/>
<path d="M31.5203 36.0571C31.293 36.1794 31.0621 36.2996 30.8348 36.4218L30.8574 36.4338C31.0885 36.3136 31.3158 36.1914 31.5469 36.0712C31.5431 36.0692 31.5203 36.0571 31.5203 36.0571Z" fill="#EAE5FC"/>
<path d="M30.831 36.4218C30.5961 36.546 30.365 36.6682 30.1302 36.7924L30.1529 36.8045C30.3878 36.6802 30.6188 36.558 30.8536 36.4338L30.831 36.4218Z" fill="#EAE5FC"/>
<path d="M28.7702 37.8763C28.5392 37.9965 28.312 38.1187 28.0809 38.2389L28.1036 38.2509C28.3308 38.1287 28.5619 38.0085 28.7892 37.8863C28.793 37.8883 28.7702 37.8763 28.7702 37.8763Z" fill="#EAE5FC"/>
<path d="M27.4104 38.6236C27.6415 38.4994 27.8763 38.3752 28.1074 38.2509L28.0847 38.2389C27.8498 38.3611 27.6149 38.4854 27.3801 38.6076L27.4104 38.6236Z" fill="#EAE5FC"/>
<path d="M26.0353 39.7155C26.2702 39.5933 26.5013 39.469 26.7362 39.3468L26.702 39.3308C26.471 39.453 26.2362 39.5772 26.0051 39.6994L26.0353 39.7155Z" fill="#EAE5FC"/>
</svg>
