<svg width="11" height="19" viewBox="0 0 11 19" fill="none" xmlns="http://www.w3.org/2000/svg">
<path d="M9.9668 0.690918H7.4707C6.7793 0.690918 6.15234 0.796387 5.58984 1.00732C5.01562 1.21826 4.5293 1.51416 4.13086 1.89502C3.73242 2.27588 3.42773 2.7417 3.2168 3.29248C2.99414 3.83154 2.88281 4.44092 2.88281 5.12061V7.15967H0.386719C0.28125 7.15967 0.19043 7.19482 0.114258 7.26514C0.0380859 7.33545 0 7.42334 0 7.52881V10.4995C0 10.5933 0.0380859 10.6782 0.114258 10.7544C0.19043 10.8306 0.28125 10.8687 0.386719 10.8687H2.88281V18.3394C2.88281 18.4331 2.9209 18.5151 2.99707 18.5854C3.07324 18.6558 3.16406 18.6909 3.26953 18.6909H6.52148C6.63867 18.6909 6.73535 18.6558 6.81152 18.5854C6.8877 18.5151 6.92578 18.4272 6.92578 18.3218V10.8511H9.84375C9.94922 10.8511 10.04 10.8159 10.1162 10.7456C10.1924 10.6753 10.2305 10.5874 10.2305 10.4819V7.52881C10.2305 7.47021 10.2217 7.42041 10.2041 7.37939C10.1865 7.33838 10.1602 7.30029 10.125 7.26514C10.0781 7.22998 10.0312 7.20361 9.98438 7.18604C9.9375 7.16846 9.89062 7.15967 9.84375 7.15967H6.92578V5.43701C6.92578 5.01514 7.00781 4.70166 7.17188 4.49658C7.33594 4.2915 7.70508 4.18896 8.2793 4.18896H9.94922C10.0664 4.18896 10.1631 4.15088 10.2393 4.07471C10.3154 3.99854 10.3535 3.91357 10.3535 3.81982V1.06006C10.3535 0.966309 10.3154 0.881348 10.2393 0.805176C10.1631 0.729004 10.0723 0.690918 9.9668 0.690918Z" fill="white"/>
</svg>
