<svg width="70" height="71" viewBox="0 0 70 71" fill="none" xmlns="http://www.w3.org/2000/svg">
<path d="M0 35.408C0 16.078 15.67 0.407959 35 0.407959C54.33 0.407959 70 16.078 70 35.408V67.408C70 69.0648 68.6569 70.408 67 70.408H3C1.34315 70.408 0 69.0648 0 67.408V35.408Z" fill="#525FE1" fill-opacity="0.15"/>
<path d="M31 29.908H39M30.705 32.1171L35.2826 38.7114M27.6 32.408H29.4C29.9601 32.408 30.2401 32.408 30.454 32.299C30.6421 32.2031 30.7951 32.0501 30.891 31.8619C31 31.648 31 31.368 31 30.808V29.008C31 28.4479 31 28.1679 30.891 27.954C30.7951 27.7658 30.6421 27.6128 30.454 27.5169C30.2401 27.408 29.9601 27.408 29.4 27.408H27.6C27.0399 27.408 26.7599 27.408 26.546 27.5169C26.3579 27.6128 26.2049 27.7658 26.109 27.954C26 28.1679 26 28.4479 26 29.008V30.808C26 31.368 26 31.648 26.109 31.8619C26.2049 32.0501 26.3579 32.2031 26.546 32.299C26.7599 32.408 27.0399 32.408 27.6 32.408ZM36.6 43.408H38.4C38.9601 43.408 39.2401 43.408 39.454 43.299C39.6422 43.2031 39.7951 43.0502 39.891 42.862C40 42.6481 40 42.3681 40 41.808V40.008C40 39.4479 40 39.1679 39.891 38.954C39.7951 38.7658 39.6422 38.6129 39.454 38.517C39.2401 38.408 38.9601 38.408 38.4 38.408H36.6C36.0399 38.408 35.7599 38.408 35.546 38.517C35.3578 38.6129 35.2049 38.7658 35.109 38.954C35 39.1679 35 39.4479 35 40.008V41.808C35 42.3681 35 42.6481 35.109 42.862C35.2049 43.0502 35.3578 43.2031 35.546 43.299C35.7599 43.408 36.0399 43.408 36.6 43.408ZM40.6 32.408H42.4C42.9601 32.408 43.2401 32.408 43.454 32.299C43.6422 32.2031 43.7951 32.0501 43.891 31.8619C44 31.648 44 31.368 44 30.808V29.008C44 28.4479 44 28.1679 43.891 27.954C43.7951 27.7658 43.6422 27.6128 43.454 27.5169C43.2401 27.408 42.9601 27.408 42.4 27.408H40.6C40.0399 27.408 39.7599 27.408 39.546 27.5169C39.3578 27.6128 39.2049 27.7658 39.109 27.954C39 28.1679 39 28.4479 39 29.008V30.808C39 31.368 39 31.648 39.109 31.8619C39.2049 32.0501 39.3578 32.2031 39.546 32.299C39.7599 32.408 40.0399 32.408 40.6 32.408Z" stroke="#525FE1" stroke-width="2" stroke-linecap="round" stroke-linejoin="round"/>
</svg>
