<svg width="79" height="75" viewBox="0 0 79 75" fill="none" xmlns="http://www.w3.org/2000/svg">
<path fill-rule="evenodd" clip-rule="evenodd" d="M35.6073 27.7753C28.1812 21.6709 22.1639 14.4013 17.6421 5.93178C16.7378 4.24482 14.6335 3.60133 12.9292 4.50568C11.2422 5.41003 10.5986 7.51441 11.503 9.21876C16.4769 18.4883 23.0509 26.4536 31.19 33.1492C32.6683 34.3666 34.8769 34.1579 36.0943 32.6796C37.3117 31.184 37.0856 28.9926 35.6073 27.7753Z" fill="#E4AE0A"/>
<path fill-rule="evenodd" clip-rule="evenodd" d="M31.6474 4.00141C32.03 11.0275 32.3779 18.0536 32.8127 25.0797C32.9344 26.9927 34.5866 28.4536 36.4996 28.3318C38.4127 28.2101 39.8735 26.5579 39.7518 24.6449C39.317 17.6362 38.9691 10.6275 38.5865 3.60144C38.4822 1.69362 36.83 0.224042 34.917 0.331868C33.0039 0.439694 31.5257 2.08315 31.6474 4.00141Z" fill="#E4AE0A"/>
<path fill-rule="evenodd" clip-rule="evenodd" d="M57.4666 5.42761C53.0144 12.1406 47.9712 18.3319 42.8929 24.5928C41.6755 26.0884 41.9015 28.2798 43.3971 29.4798C44.8928 30.6972 47.0842 30.471 48.2842 28.9754C53.5016 22.558 58.6842 16.1754 63.2755 9.27102C64.3363 7.67102 63.884 5.51457 62.284 4.4537C60.7014 3.39283 58.5275 3.82761 57.4666 5.42761Z" fill="#E4AE0A"/>
<path fill-rule="evenodd" clip-rule="evenodd" d="M74.7128 30.384C62.6433 30.9232 49.8259 30.9406 37.7563 30.1754C35.8432 30.071 34.1911 31.5145 34.0693 33.4449C33.9476 35.358 35.4085 37.0101 37.3215 37.1319C49.6346 37.8971 62.7129 37.8797 75.026 37.3406C76.939 37.2536 78.4345 35.6189 78.3475 33.7058C78.2606 31.7928 76.6259 30.2971 74.7128 30.384Z" fill="#E4AE0A"/>
<path fill-rule="evenodd" clip-rule="evenodd" d="M31.181 32.5925C38.6244 41.7056 46.3289 50.6448 53.2332 60.1752C54.3637 61.723 56.5377 62.0708 58.1029 60.9403C59.6507 59.8099 59.9984 57.6359 58.868 56.0881C51.8767 46.4533 44.0855 37.4099 36.555 28.1925C35.3376 26.7142 33.1462 26.4882 31.668 27.7056C30.1723 28.923 29.9636 31.1143 31.181 32.5925Z" fill="#E4AE0A"/>
<path fill-rule="evenodd" clip-rule="evenodd" d="M33.4351 35.2368C35.3829 44.7325 35.9221 53.8108 36.0612 63.4282C36.0786 65.3412 37.6613 66.8716 39.5743 66.8542C41.5047 66.8194 43.0351 65.2541 43.0003 63.3237C42.8612 53.2541 42.2874 43.7759 40.2526 33.8281C39.8526 31.9499 38.0265 30.7324 36.1309 31.1324C34.2526 31.515 33.0351 33.3585 33.4351 35.2368Z" fill="#E4AE0A"/>
<path fill-rule="evenodd" clip-rule="evenodd" d="M33.7491 34.4719C28.1143 45.7415 25.21 58.2633 19.1752 69.2894C18.2535 70.9589 18.8794 73.0806 20.5664 74.0023C22.2533 74.9241 24.3578 74.2979 25.2796 72.6284C31.3491 61.5327 34.2882 48.9415 39.9751 37.5849C40.8273 35.8632 40.1316 33.7762 38.4273 32.9067C36.7055 32.0545 34.6187 32.7502 33.7491 34.4719Z" fill="#E4AE0A"/>
<path fill-rule="evenodd" clip-rule="evenodd" d="M36.8501 31.9145C25.6327 33.8971 14.4327 34.8014 3.14573 36.1405C1.23268 36.3666 -0.123839 38.0884 0.102248 40.0015C0.328335 41.9145 2.05024 43.271 3.96328 43.0449C15.372 41.7058 26.7111 40.7666 38.0676 38.7666C39.9459 38.4188 41.2154 36.6101 40.885 34.7318C40.5372 32.8362 38.7457 31.5666 36.8501 31.9145Z" fill="#E4AE0A"/>
<path fill-rule="evenodd" clip-rule="evenodd" d="M44.6555 26.6285C42.3425 26.5241 40.1511 26.3676 37.8903 26.0371C35.9772 25.7589 34.2207 27.0806 33.9424 28.9763C33.6641 30.8719 34.9858 32.6459 36.8814 32.9241C39.3858 33.2893 41.8032 33.4632 44.3424 33.5676C46.2554 33.6545 47.8901 32.1762 47.9597 30.2458C48.0466 28.3327 46.5685 26.7154 44.6555 26.6285Z" fill="#E4AE0A"/>
</svg>
