<svg width="52" height="54" viewBox="0 0 52 54" fill="none" xmlns="http://www.w3.org/2000/svg">
<path fill-rule="evenodd" clip-rule="evenodd" d="M7.11656 24.3257C9.48118 23.4831 11.9695 22.3633 13.8884 20.742C16.1674 18.8164 17.0942 16.3363 17.7166 13.7257C18.5157 10.3718 18.835 6.79897 19.8039 3.43959C20.1627 2.19205 20.8531 1.72048 21.1494 1.51119C21.8982 0.982552 22.6551 0.841247 23.3672 0.894247C24.2111 0.955401 25.3704 1.27474 26.1327 2.68943C26.2415 2.89192 26.3828 3.20042 26.4779 3.62306C26.5472 3.93291 26.592 4.90184 26.6654 5.30137C26.8489 6.28527 27.0025 7.2692 27.1465 8.25854C27.6262 11.5513 27.9021 14.3481 29.4174 17.3731C31.4735 21.48 33.5337 23.9927 36.3278 25.1057C39.0294 26.182 42.2597 25.9796 46.3869 25.1357C46.7796 25.0405 47.1683 24.959 47.5528 24.8924C49.3725 24.5744 51.112 25.7689 51.4694 27.5818C51.8268 29.3933 50.6704 31.1586 48.867 31.5568C48.4906 31.6397 48.1196 31.7185 47.7527 31.7905C42.1754 33.1712 35.7189 38.0989 31.9668 42.4136C30.8103 43.7441 29.117 47.4636 27.3898 49.8363C26.1151 51.5867 24.6827 52.7405 23.48 53.1482C22.6741 53.4227 21.9947 53.3806 21.4334 53.242C20.618 53.0408 19.9413 52.5991 19.4221 51.8965C19.1395 51.5119 18.8771 50.9969 18.7521 50.3391C18.6923 50.0225 18.6856 49.218 18.6869 48.8538C18.3349 47.643 17.9041 46.4606 17.5902 45.2389C16.8414 42.3239 15.3724 40.4784 13.6274 38.0404C11.9953 35.7587 10.2423 34.325 7.67246 33.1808C7.33815 33.0992 4.64058 32.4387 3.68794 32.0596C2.29635 31.5038 1.63314 30.5728 1.3926 30.0714C0.983545 29.2207 0.941454 28.4774 1.02299 27.8577C1.14394 26.9431 1.55435 26.1603 2.28276 25.5284C2.73394 25.1357 3.408 24.7537 4.31036 24.5676C5.00751 24.4221 6.857 24.3379 7.11656 24.3257ZM22.9418 19.5747C23.0669 19.8533 23.2001 20.1332 23.3414 20.4159C26.3529 26.4307 29.7204 29.7888 33.8136 31.4182L33.9509 31.4712C31.2126 33.5042 28.7338 35.7764 26.8394 37.9548C26.0593 38.8518 25.0265 40.7149 23.9108 42.6256C22.897 39.3301 21.2391 37.0009 19.1544 34.0859C17.5617 31.8612 15.8929 30.187 13.8422 28.8226C15.4335 28.0058 16.9515 27.0491 18.2738 25.932C20.4753 24.0716 21.9308 21.9162 22.9418 19.5747Z" fill="#E4AE0A"/>
</svg>
