<svg width="12" height="15" viewBox="0 0 12 15" fill="none" xmlns="http://www.w3.org/2000/svg">
<path d="M0.5 14.6667C0.5 13.6978 0.744444 12.8 1.23333 11.9734C1.70444 11.1734 2.34 10.5378 3.14 10.0667C3.96667 9.5778 4.86444 9.33335 5.83333 9.33335C6.80222 9.33335 7.7 9.5778 8.52667 10.0667C9.32667 10.5378 9.96222 11.1734 10.4333 11.9734C10.9222 12.8 11.1667 13.6978 11.1667 14.6667H9.83333C9.83333 13.9467 9.65111 13.2756 9.28667 12.6534C8.93111 12.0489 8.45111 11.5689 7.84667 11.2134C7.22444 10.8489 6.55333 10.6667 5.83333 10.6667C5.11333 10.6667 4.44222 10.8489 3.82 11.2134C3.21556 11.5689 2.73556 12.0489 2.38 12.6534C2.01556 13.2756 1.83333 13.9467 1.83333 14.6667H0.5ZM5.83333 8.66669C5.10444 8.66669 4.43333 8.48446 3.82 8.12002C3.21556 7.76446 2.73556 7.28446 2.38 6.68002C2.01556 6.06669 1.83333 5.39558 1.83333 4.66669C1.83333 3.9378 2.01556 3.26669 2.38 2.65335C2.73556 2.04891 3.21556 1.56891 3.82 1.21335C4.43333 0.848908 5.10444 0.666687 5.83333 0.666687C6.56222 0.666687 7.23333 0.848908 7.84667 1.21335C8.45111 1.56891 8.93111 2.04891 9.28667 2.65335C9.65111 3.26669 9.83333 3.9378 9.83333 4.66669C9.83333 5.39558 9.65111 6.06669 9.28667 6.68002C8.93111 7.28446 8.45111 7.76446 7.84667 8.12002C7.23333 8.48446 6.56222 8.66669 5.83333 8.66669ZM5.83333 7.33335C6.31333 7.33335 6.75778 7.21335 7.16667 6.97335C7.57556 6.73335 7.9 6.40891 8.14 6.00002C8.38 5.59113 8.5 5.14669 8.5 4.66669C8.5 4.18669 8.38 3.74224 8.14 3.33335C7.9 2.92446 7.57556 2.60002 7.16667 2.36002C6.75778 2.12002 6.31333 2.00002 5.83333 2.00002C5.35333 2.00002 4.90889 2.12002 4.5 2.36002C4.09111 2.60002 3.76667 2.92446 3.52667 3.33335C3.28667 3.74224 3.16667 4.18669 3.16667 4.66669C3.16667 5.14669 3.28667 5.59113 3.52667 6.00002C3.76667 6.40891 4.09111 6.73335 4.5 6.97335C4.90889 7.21335 5.35333 7.33335 5.83333 7.33335Z" fill="white"/>
</svg>
